%TF.GenerationSoftware,KiCad,Pcbnew,6.0.7-f9a2dced07~116~ubuntu20.04.1*%
%TF.CreationDate,2022-07-30T18:15:20+02:00*%
%TF.ProjectId,fatrug,66617472-7567-42e6-9b69-6361645f7063,rev?*%
%TF.SameCoordinates,Original*%
%TF.FileFunction,Legend,Top*%
%TF.FilePolarity,Positive*%
%FSLAX46Y46*%
G04 Gerber Fmt 4.6, Leading zero omitted, Abs format (unit mm)*
G04 Created by KiCad (PCBNEW 6.0.7-f9a2dced07~116~ubuntu20.04.1) date 2022-07-30 18:15:20*
%MOMM*%
%LPD*%
G01*
G04 APERTURE LIST*
%ADD10C,0.250000*%
%ADD11C,0.150000*%
%ADD12C,0.200000*%
%ADD13C,0.120000*%
G04 APERTURE END LIST*
D10*
X67610714Y-102503571D02*
X67753571Y-102503571D01*
X67896428Y-102575000D01*
X67967857Y-102646428D01*
X68039285Y-102789285D01*
X68110714Y-103075000D01*
X68110714Y-103432142D01*
X68039285Y-103717857D01*
X67967857Y-103860714D01*
X67896428Y-103932142D01*
X67753571Y-104003571D01*
X67610714Y-104003571D01*
X67467857Y-103932142D01*
X67396428Y-103860714D01*
X67325000Y-103717857D01*
X67253571Y-103432142D01*
X67253571Y-103075000D01*
X67325000Y-102789285D01*
X67396428Y-102646428D01*
X67467857Y-102575000D01*
X67610714Y-102503571D01*
X68610714Y-102503571D02*
X69610714Y-102503571D01*
X68967857Y-104003571D01*
X71253571Y-102432142D02*
X69967857Y-104360714D01*
X71682142Y-102646428D02*
X71753571Y-102575000D01*
X71896428Y-102503571D01*
X72253571Y-102503571D01*
X72396428Y-102575000D01*
X72467857Y-102646428D01*
X72539285Y-102789285D01*
X72539285Y-102932142D01*
X72467857Y-103146428D01*
X71610714Y-104003571D01*
X72539285Y-104003571D01*
X73110714Y-102646428D02*
X73182142Y-102575000D01*
X73325000Y-102503571D01*
X73682142Y-102503571D01*
X73825000Y-102575000D01*
X73896428Y-102646428D01*
X73967857Y-102789285D01*
X73967857Y-102932142D01*
X73896428Y-103146428D01*
X73039285Y-104003571D01*
X73967857Y-104003571D01*
X76253571Y-103217857D02*
X75753571Y-103217857D01*
X75753571Y-104003571D02*
X75753571Y-102503571D01*
X76467857Y-102503571D01*
X76967857Y-103575000D02*
X77682142Y-103575000D01*
X76825000Y-104003571D02*
X77325000Y-102503571D01*
X77825000Y-104003571D01*
X78110714Y-102503571D02*
X78967857Y-102503571D01*
X78539285Y-104003571D02*
X78539285Y-102503571D01*
X80325000Y-104003571D02*
X79825000Y-103289285D01*
X79467857Y-104003571D02*
X79467857Y-102503571D01*
X80039285Y-102503571D01*
X80182142Y-102575000D01*
X80253571Y-102646428D01*
X80325000Y-102789285D01*
X80325000Y-103003571D01*
X80253571Y-103146428D01*
X80182142Y-103217857D01*
X80039285Y-103289285D01*
X79467857Y-103289285D01*
X80967857Y-102503571D02*
X80967857Y-103717857D01*
X81039285Y-103860714D01*
X81110714Y-103932142D01*
X81253571Y-104003571D01*
X81539285Y-104003571D01*
X81682142Y-103932142D01*
X81753571Y-103860714D01*
X81825000Y-103717857D01*
X81825000Y-102503571D01*
X83325000Y-102575000D02*
X83182142Y-102503571D01*
X82967857Y-102503571D01*
X82753571Y-102575000D01*
X82610714Y-102717857D01*
X82539285Y-102860714D01*
X82467857Y-103146428D01*
X82467857Y-103360714D01*
X82539285Y-103646428D01*
X82610714Y-103789285D01*
X82753571Y-103932142D01*
X82967857Y-104003571D01*
X83110714Y-104003571D01*
X83325000Y-103932142D01*
X83396428Y-103860714D01*
X83396428Y-103360714D01*
X83110714Y-103360714D01*
D11*
X65872619Y-60386904D02*
X65415476Y-60386904D01*
X65644047Y-60386904D02*
X65644047Y-59586904D01*
X65567857Y-59701190D01*
X65491666Y-59777380D01*
X65415476Y-59815476D01*
X66139285Y-59586904D02*
X66672619Y-59586904D01*
X66329761Y-60386904D01*
X65872619Y-62786904D02*
X65415476Y-62786904D01*
X65644047Y-62786904D02*
X65644047Y-61986904D01*
X65567857Y-62101190D01*
X65491666Y-62177380D01*
X65415476Y-62215476D01*
X66558333Y-61986904D02*
X66405952Y-61986904D01*
X66329761Y-62025000D01*
X66291666Y-62063095D01*
X66215476Y-62177380D01*
X66177380Y-62329761D01*
X66177380Y-62634523D01*
X66215476Y-62710714D01*
X66253571Y-62748809D01*
X66329761Y-62786904D01*
X66482142Y-62786904D01*
X66558333Y-62748809D01*
X66596428Y-62710714D01*
X66634523Y-62634523D01*
X66634523Y-62444047D01*
X66596428Y-62367857D01*
X66558333Y-62329761D01*
X66482142Y-62291666D01*
X66329761Y-62291666D01*
X66253571Y-62329761D01*
X66215476Y-62367857D01*
X66177380Y-62444047D01*
X66177380Y-64853571D02*
X66177380Y-65386904D01*
X65986904Y-64548809D02*
X65796428Y-65120238D01*
X66291666Y-65120238D01*
X65872619Y-67986904D02*
X65415476Y-67986904D01*
X65644047Y-67986904D02*
X65644047Y-67186904D01*
X65567857Y-67301190D01*
X65491666Y-67377380D01*
X65415476Y-67415476D01*
X66177380Y-67263095D02*
X66215476Y-67225000D01*
X66291666Y-67186904D01*
X66482142Y-67186904D01*
X66558333Y-67225000D01*
X66596428Y-67263095D01*
X66634523Y-67339285D01*
X66634523Y-67415476D01*
X66596428Y-67529761D01*
X66139285Y-67986904D01*
X66634523Y-67986904D01*
X65577380Y-69686904D02*
X66072619Y-69686904D01*
X65805952Y-69991666D01*
X65920238Y-69991666D01*
X65996428Y-70029761D01*
X66034523Y-70067857D01*
X66072619Y-70144047D01*
X66072619Y-70334523D01*
X66034523Y-70410714D01*
X65996428Y-70448809D01*
X65920238Y-70486904D01*
X65691666Y-70486904D01*
X65615476Y-70448809D01*
X65577380Y-70410714D01*
X66758333Y-69686904D02*
X66605952Y-69686904D01*
X66529761Y-69725000D01*
X66491666Y-69763095D01*
X66415476Y-69877380D01*
X66377380Y-70029761D01*
X66377380Y-70334523D01*
X66415476Y-70410714D01*
X66453571Y-70448809D01*
X66529761Y-70486904D01*
X66682142Y-70486904D01*
X66758333Y-70448809D01*
X66796428Y-70410714D01*
X66834523Y-70334523D01*
X66834523Y-70144047D01*
X66796428Y-70067857D01*
X66758333Y-70029761D01*
X66682142Y-69991666D01*
X66529761Y-69991666D01*
X66453571Y-70029761D01*
X66415476Y-70067857D01*
X66377380Y-70144047D01*
X65577380Y-72086904D02*
X66072619Y-72086904D01*
X65805952Y-72391666D01*
X65920238Y-72391666D01*
X65996428Y-72429761D01*
X66034523Y-72467857D01*
X66072619Y-72544047D01*
X66072619Y-72734523D01*
X66034523Y-72810714D01*
X65996428Y-72848809D01*
X65920238Y-72886904D01*
X65691666Y-72886904D01*
X65615476Y-72848809D01*
X65577380Y-72810714D01*
X66453571Y-72886904D02*
X66605952Y-72886904D01*
X66682142Y-72848809D01*
X66720238Y-72810714D01*
X66796428Y-72696428D01*
X66834523Y-72544047D01*
X66834523Y-72239285D01*
X66796428Y-72163095D01*
X66758333Y-72125000D01*
X66682142Y-72086904D01*
X66529761Y-72086904D01*
X66453571Y-72125000D01*
X66415476Y-72163095D01*
X66377380Y-72239285D01*
X66377380Y-72429761D01*
X66415476Y-72505952D01*
X66453571Y-72544047D01*
X66529761Y-72582142D01*
X66682142Y-72582142D01*
X66758333Y-72544047D01*
X66796428Y-72505952D01*
X66834523Y-72429761D01*
X65477380Y-74786904D02*
X65972619Y-74786904D01*
X65705952Y-75091666D01*
X65820238Y-75091666D01*
X65896428Y-75129761D01*
X65934523Y-75167857D01*
X65972619Y-75244047D01*
X65972619Y-75434523D01*
X65934523Y-75510714D01*
X65896428Y-75548809D01*
X65820238Y-75586904D01*
X65591666Y-75586904D01*
X65515476Y-75548809D01*
X65477380Y-75510714D01*
X66658333Y-75053571D02*
X66658333Y-75586904D01*
X66467857Y-74748809D02*
X66277380Y-75320238D01*
X66772619Y-75320238D01*
X65477380Y-77386904D02*
X65972619Y-77386904D01*
X65705952Y-77691666D01*
X65820238Y-77691666D01*
X65896428Y-77729761D01*
X65934523Y-77767857D01*
X65972619Y-77844047D01*
X65972619Y-78034523D01*
X65934523Y-78110714D01*
X65896428Y-78148809D01*
X65820238Y-78186904D01*
X65591666Y-78186904D01*
X65515476Y-78148809D01*
X65477380Y-78110714D01*
X66696428Y-77386904D02*
X66315476Y-77386904D01*
X66277380Y-77767857D01*
X66315476Y-77729761D01*
X66391666Y-77691666D01*
X66582142Y-77691666D01*
X66658333Y-77729761D01*
X66696428Y-77767857D01*
X66734523Y-77844047D01*
X66734523Y-78034523D01*
X66696428Y-78110714D01*
X66658333Y-78148809D01*
X66582142Y-78186904D01*
X66391666Y-78186904D01*
X66315476Y-78148809D01*
X66277380Y-78110714D01*
X64758333Y-92736904D02*
X65025000Y-93536904D01*
X65291666Y-92736904D01*
X66015476Y-93460714D02*
X65977380Y-93498809D01*
X65863095Y-93536904D01*
X65786904Y-93536904D01*
X65672619Y-93498809D01*
X65596428Y-93422619D01*
X65558333Y-93346428D01*
X65520238Y-93194047D01*
X65520238Y-93079761D01*
X65558333Y-92927380D01*
X65596428Y-92851190D01*
X65672619Y-92775000D01*
X65786904Y-92736904D01*
X65863095Y-92736904D01*
X65977380Y-92775000D01*
X66015476Y-92813095D01*
X66815476Y-93460714D02*
X66777380Y-93498809D01*
X66663095Y-93536904D01*
X66586904Y-93536904D01*
X66472619Y-93498809D01*
X66396428Y-93422619D01*
X66358333Y-93346428D01*
X66320238Y-93194047D01*
X66320238Y-93079761D01*
X66358333Y-92927380D01*
X66396428Y-92851190D01*
X66472619Y-92775000D01*
X66586904Y-92736904D01*
X66663095Y-92736904D01*
X66777380Y-92775000D01*
X66815476Y-92813095D01*
X94011904Y-103636904D02*
X93745238Y-103255952D01*
X93554761Y-103636904D02*
X93554761Y-102836904D01*
X93859523Y-102836904D01*
X93935714Y-102875000D01*
X93973809Y-102913095D01*
X94011904Y-102989285D01*
X94011904Y-103103571D01*
X93973809Y-103179761D01*
X93935714Y-103217857D01*
X93859523Y-103255952D01*
X93554761Y-103255952D01*
X94316666Y-103598809D02*
X94430952Y-103636904D01*
X94621428Y-103636904D01*
X94697619Y-103598809D01*
X94735714Y-103560714D01*
X94773809Y-103484523D01*
X94773809Y-103408333D01*
X94735714Y-103332142D01*
X94697619Y-103294047D01*
X94621428Y-103255952D01*
X94469047Y-103217857D01*
X94392857Y-103179761D01*
X94354761Y-103141666D01*
X94316666Y-103065476D01*
X94316666Y-102989285D01*
X94354761Y-102913095D01*
X94392857Y-102875000D01*
X94469047Y-102836904D01*
X94659523Y-102836904D01*
X94773809Y-102875000D01*
X95002380Y-102836904D02*
X95459523Y-102836904D01*
X95230952Y-103636904D02*
X95230952Y-102836904D01*
X93315476Y-87438095D02*
X93353571Y-87400000D01*
X93429761Y-87361904D01*
X93620238Y-87361904D01*
X93696428Y-87400000D01*
X93734523Y-87438095D01*
X93772619Y-87514285D01*
X93772619Y-87590476D01*
X93734523Y-87704761D01*
X93277380Y-88161904D01*
X93772619Y-88161904D01*
X94039285Y-87361904D02*
X94534523Y-87361904D01*
X94267857Y-87666666D01*
X94382142Y-87666666D01*
X94458333Y-87704761D01*
X94496428Y-87742857D01*
X94534523Y-87819047D01*
X94534523Y-88009523D01*
X94496428Y-88085714D01*
X94458333Y-88123809D01*
X94382142Y-88161904D01*
X94153571Y-88161904D01*
X94077380Y-88123809D01*
X94039285Y-88085714D01*
X93772619Y-85786904D02*
X93315476Y-85786904D01*
X93544047Y-85786904D02*
X93544047Y-84986904D01*
X93467857Y-85101190D01*
X93391666Y-85177380D01*
X93315476Y-85215476D01*
X94153571Y-85786904D02*
X94305952Y-85786904D01*
X94382142Y-85748809D01*
X94420238Y-85710714D01*
X94496428Y-85596428D01*
X94534523Y-85444047D01*
X94534523Y-85139285D01*
X94496428Y-85063095D01*
X94458333Y-85025000D01*
X94382142Y-84986904D01*
X94229761Y-84986904D01*
X94153571Y-85025000D01*
X94115476Y-85063095D01*
X94077380Y-85139285D01*
X94077380Y-85329761D01*
X94115476Y-85405952D01*
X94153571Y-85444047D01*
X94229761Y-85482142D01*
X94382142Y-85482142D01*
X94458333Y-85444047D01*
X94496428Y-85405952D01*
X94534523Y-85329761D01*
X93415476Y-82663095D02*
X93453571Y-82625000D01*
X93529761Y-82586904D01*
X93720238Y-82586904D01*
X93796428Y-82625000D01*
X93834523Y-82663095D01*
X93872619Y-82739285D01*
X93872619Y-82815476D01*
X93834523Y-82929761D01*
X93377380Y-83386904D01*
X93872619Y-83386904D01*
X94177380Y-82663095D02*
X94215476Y-82625000D01*
X94291666Y-82586904D01*
X94482142Y-82586904D01*
X94558333Y-82625000D01*
X94596428Y-82663095D01*
X94634523Y-82739285D01*
X94634523Y-82815476D01*
X94596428Y-82929761D01*
X94139285Y-83386904D01*
X94634523Y-83386904D01*
X93440476Y-79863095D02*
X93478571Y-79825000D01*
X93554761Y-79786904D01*
X93745238Y-79786904D01*
X93821428Y-79825000D01*
X93859523Y-79863095D01*
X93897619Y-79939285D01*
X93897619Y-80015476D01*
X93859523Y-80129761D01*
X93402380Y-80586904D01*
X93897619Y-80586904D01*
X94659523Y-80586904D02*
X94202380Y-80586904D01*
X94430952Y-80586904D02*
X94430952Y-79786904D01*
X94354761Y-79901190D01*
X94278571Y-79977380D01*
X94202380Y-80015476D01*
X93721428Y-77388095D02*
X93759523Y-77350000D01*
X93835714Y-77311904D01*
X94026190Y-77311904D01*
X94102380Y-77350000D01*
X94140476Y-77388095D01*
X94178571Y-77464285D01*
X94178571Y-77540476D01*
X94140476Y-77654761D01*
X93683333Y-78111904D01*
X94178571Y-78111904D01*
X93947619Y-75761904D02*
X93490476Y-75761904D01*
X93719047Y-75761904D02*
X93719047Y-74961904D01*
X93642857Y-75076190D01*
X93566666Y-75152380D01*
X93490476Y-75190476D01*
X94214285Y-74961904D02*
X94709523Y-74961904D01*
X94442857Y-75266666D01*
X94557142Y-75266666D01*
X94633333Y-75304761D01*
X94671428Y-75342857D01*
X94709523Y-75419047D01*
X94709523Y-75609523D01*
X94671428Y-75685714D01*
X94633333Y-75723809D01*
X94557142Y-75761904D01*
X94328571Y-75761904D01*
X94252380Y-75723809D01*
X94214285Y-75685714D01*
X93947619Y-73011904D02*
X93490476Y-73011904D01*
X93719047Y-73011904D02*
X93719047Y-72211904D01*
X93642857Y-72326190D01*
X93566666Y-72402380D01*
X93490476Y-72440476D01*
X94633333Y-72478571D02*
X94633333Y-73011904D01*
X94442857Y-72173809D02*
X94252380Y-72745238D01*
X94747619Y-72745238D01*
X93911904Y-69536904D02*
X93988095Y-69536904D01*
X94064285Y-69575000D01*
X94102380Y-69613095D01*
X94140476Y-69689285D01*
X94178571Y-69841666D01*
X94178571Y-70032142D01*
X94140476Y-70184523D01*
X94102380Y-70260714D01*
X94064285Y-70298809D01*
X93988095Y-70336904D01*
X93911904Y-70336904D01*
X93835714Y-70298809D01*
X93797619Y-70260714D01*
X93759523Y-70184523D01*
X93721428Y-70032142D01*
X93721428Y-69841666D01*
X93759523Y-69689285D01*
X93797619Y-69613095D01*
X93835714Y-69575000D01*
X93911904Y-69536904D01*
X93390476Y-67163095D02*
X93428571Y-67125000D01*
X93504761Y-67086904D01*
X93695238Y-67086904D01*
X93771428Y-67125000D01*
X93809523Y-67163095D01*
X93847619Y-67239285D01*
X93847619Y-67315476D01*
X93809523Y-67429761D01*
X93352380Y-67886904D01*
X93847619Y-67886904D01*
X94533333Y-67086904D02*
X94380952Y-67086904D01*
X94304761Y-67125000D01*
X94266666Y-67163095D01*
X94190476Y-67277380D01*
X94152380Y-67429761D01*
X94152380Y-67734523D01*
X94190476Y-67810714D01*
X94228571Y-67848809D01*
X94304761Y-67886904D01*
X94457142Y-67886904D01*
X94533333Y-67848809D01*
X94571428Y-67810714D01*
X94609523Y-67734523D01*
X94609523Y-67544047D01*
X94571428Y-67467857D01*
X94533333Y-67429761D01*
X94457142Y-67391666D01*
X94304761Y-67391666D01*
X94228571Y-67429761D01*
X94190476Y-67467857D01*
X94152380Y-67544047D01*
X93390476Y-64513095D02*
X93428571Y-64475000D01*
X93504761Y-64436904D01*
X93695238Y-64436904D01*
X93771428Y-64475000D01*
X93809523Y-64513095D01*
X93847619Y-64589285D01*
X93847619Y-64665476D01*
X93809523Y-64779761D01*
X93352380Y-65236904D01*
X93847619Y-65236904D01*
X94571428Y-64436904D02*
X94190476Y-64436904D01*
X94152380Y-64817857D01*
X94190476Y-64779761D01*
X94266666Y-64741666D01*
X94457142Y-64741666D01*
X94533333Y-64779761D01*
X94571428Y-64817857D01*
X94609523Y-64894047D01*
X94609523Y-65084523D01*
X94571428Y-65160714D01*
X94533333Y-65198809D01*
X94457142Y-65236904D01*
X94266666Y-65236904D01*
X94190476Y-65198809D01*
X94152380Y-65160714D01*
X94178571Y-62786904D02*
X93721428Y-62786904D01*
X93950000Y-62786904D02*
X93950000Y-61986904D01*
X93873809Y-62101190D01*
X93797619Y-62177380D01*
X93721428Y-62215476D01*
X93733333Y-59336904D02*
X94228571Y-59336904D01*
X93961904Y-59641666D01*
X94076190Y-59641666D01*
X94152380Y-59679761D01*
X94190476Y-59717857D01*
X94228571Y-59794047D01*
X94228571Y-59984523D01*
X94190476Y-60060714D01*
X94152380Y-60098809D01*
X94076190Y-60136904D01*
X93847619Y-60136904D01*
X93771428Y-60098809D01*
X93733333Y-60060714D01*
X65253571Y-82973809D02*
X65367857Y-83011904D01*
X65558333Y-83011904D01*
X65634523Y-82973809D01*
X65672619Y-82935714D01*
X65710714Y-82859523D01*
X65710714Y-82783333D01*
X65672619Y-82707142D01*
X65634523Y-82669047D01*
X65558333Y-82630952D01*
X65405952Y-82592857D01*
X65329761Y-82554761D01*
X65291666Y-82516666D01*
X65253571Y-82440476D01*
X65253571Y-82364285D01*
X65291666Y-82288095D01*
X65329761Y-82250000D01*
X65405952Y-82211904D01*
X65596428Y-82211904D01*
X65710714Y-82250000D01*
X66053571Y-83011904D02*
X66053571Y-82211904D01*
X66244047Y-82211904D01*
X66358333Y-82250000D01*
X66434523Y-82326190D01*
X66472619Y-82402380D01*
X66510714Y-82554761D01*
X66510714Y-82669047D01*
X66472619Y-82821428D01*
X66434523Y-82897619D01*
X66358333Y-82973809D01*
X66244047Y-83011904D01*
X66053571Y-83011904D01*
X66815476Y-82783333D02*
X67196428Y-82783333D01*
X66739285Y-83011904D02*
X67005952Y-82211904D01*
X67272619Y-83011904D01*
X64997619Y-85773809D02*
X65111904Y-85811904D01*
X65302380Y-85811904D01*
X65378571Y-85773809D01*
X65416666Y-85735714D01*
X65454761Y-85659523D01*
X65454761Y-85583333D01*
X65416666Y-85507142D01*
X65378571Y-85469047D01*
X65302380Y-85430952D01*
X65150000Y-85392857D01*
X65073809Y-85354761D01*
X65035714Y-85316666D01*
X64997619Y-85240476D01*
X64997619Y-85164285D01*
X65035714Y-85088095D01*
X65073809Y-85050000D01*
X65150000Y-85011904D01*
X65340476Y-85011904D01*
X65454761Y-85050000D01*
X66254761Y-85735714D02*
X66216666Y-85773809D01*
X66102380Y-85811904D01*
X66026190Y-85811904D01*
X65911904Y-85773809D01*
X65835714Y-85697619D01*
X65797619Y-85621428D01*
X65759523Y-85469047D01*
X65759523Y-85354761D01*
X65797619Y-85202380D01*
X65835714Y-85126190D01*
X65911904Y-85050000D01*
X66026190Y-85011904D01*
X66102380Y-85011904D01*
X66216666Y-85050000D01*
X66254761Y-85088095D01*
X66978571Y-85811904D02*
X66597619Y-85811904D01*
X66597619Y-85011904D01*
X65390476Y-87550000D02*
X65314285Y-87511904D01*
X65200000Y-87511904D01*
X65085714Y-87550000D01*
X65009523Y-87626190D01*
X64971428Y-87702380D01*
X64933333Y-87854761D01*
X64933333Y-87969047D01*
X64971428Y-88121428D01*
X65009523Y-88197619D01*
X65085714Y-88273809D01*
X65200000Y-88311904D01*
X65276190Y-88311904D01*
X65390476Y-88273809D01*
X65428571Y-88235714D01*
X65428571Y-87969047D01*
X65276190Y-87969047D01*
X65771428Y-88311904D02*
X65771428Y-87511904D01*
X66228571Y-88311904D01*
X66228571Y-87511904D01*
X66609523Y-88311904D02*
X66609523Y-87511904D01*
X66800000Y-87511904D01*
X66914285Y-87550000D01*
X66990476Y-87626190D01*
X67028571Y-87702380D01*
X67066666Y-87854761D01*
X67066666Y-87969047D01*
X67028571Y-88121428D01*
X66990476Y-88197619D01*
X66914285Y-88273809D01*
X66800000Y-88311904D01*
X66609523Y-88311904D01*
X64944047Y-90136904D02*
X65439285Y-90136904D01*
X65172619Y-90441666D01*
X65286904Y-90441666D01*
X65363095Y-90479761D01*
X65401190Y-90517857D01*
X65439285Y-90594047D01*
X65439285Y-90784523D01*
X65401190Y-90860714D01*
X65363095Y-90898809D01*
X65286904Y-90936904D01*
X65058333Y-90936904D01*
X64982142Y-90898809D01*
X64944047Y-90860714D01*
X65782142Y-90860714D02*
X65820238Y-90898809D01*
X65782142Y-90936904D01*
X65744047Y-90898809D01*
X65782142Y-90860714D01*
X65782142Y-90936904D01*
X66086904Y-90136904D02*
X66582142Y-90136904D01*
X66315476Y-90441666D01*
X66429761Y-90441666D01*
X66505952Y-90479761D01*
X66544047Y-90517857D01*
X66582142Y-90594047D01*
X66582142Y-90784523D01*
X66544047Y-90860714D01*
X66505952Y-90898809D01*
X66429761Y-90936904D01*
X66201190Y-90936904D01*
X66125000Y-90898809D01*
X66086904Y-90860714D01*
X66810714Y-90136904D02*
X67077380Y-90936904D01*
X67344047Y-90136904D01*
X93265476Y-95075000D02*
X93189285Y-95036904D01*
X93075000Y-95036904D01*
X92960714Y-95075000D01*
X92884523Y-95151190D01*
X92846428Y-95227380D01*
X92808333Y-95379761D01*
X92808333Y-95494047D01*
X92846428Y-95646428D01*
X92884523Y-95722619D01*
X92960714Y-95798809D01*
X93075000Y-95836904D01*
X93151190Y-95836904D01*
X93265476Y-95798809D01*
X93303571Y-95760714D01*
X93303571Y-95494047D01*
X93151190Y-95494047D01*
X93646428Y-95836904D02*
X93646428Y-95036904D01*
X94103571Y-95836904D01*
X94103571Y-95036904D01*
X94484523Y-95836904D02*
X94484523Y-95036904D01*
X94675000Y-95036904D01*
X94789285Y-95075000D01*
X94865476Y-95151190D01*
X94903571Y-95227380D01*
X94941666Y-95379761D01*
X94941666Y-95494047D01*
X94903571Y-95646428D01*
X94865476Y-95722619D01*
X94789285Y-95798809D01*
X94675000Y-95836904D01*
X94484523Y-95836904D01*
X93244047Y-100086904D02*
X93739285Y-100086904D01*
X93472619Y-100391666D01*
X93586904Y-100391666D01*
X93663095Y-100429761D01*
X93701190Y-100467857D01*
X93739285Y-100544047D01*
X93739285Y-100734523D01*
X93701190Y-100810714D01*
X93663095Y-100848809D01*
X93586904Y-100886904D01*
X93358333Y-100886904D01*
X93282142Y-100848809D01*
X93244047Y-100810714D01*
X94082142Y-100810714D02*
X94120238Y-100848809D01*
X94082142Y-100886904D01*
X94044047Y-100848809D01*
X94082142Y-100810714D01*
X94082142Y-100886904D01*
X94386904Y-100086904D02*
X94882142Y-100086904D01*
X94615476Y-100391666D01*
X94729761Y-100391666D01*
X94805952Y-100429761D01*
X94844047Y-100467857D01*
X94882142Y-100544047D01*
X94882142Y-100734523D01*
X94844047Y-100810714D01*
X94805952Y-100848809D01*
X94729761Y-100886904D01*
X94501190Y-100886904D01*
X94425000Y-100848809D01*
X94386904Y-100810714D01*
X95110714Y-100086904D02*
X95377380Y-100886904D01*
X95644047Y-100086904D01*
D12*
X79757142Y-93576190D02*
X79757142Y-94242857D01*
X80804761Y-94242857D02*
X78804761Y-94242857D01*
X78804761Y-93290476D01*
X80804761Y-92528571D02*
X79471428Y-92528571D01*
X78804761Y-92528571D02*
X78900000Y-92623809D01*
X78995238Y-92528571D01*
X78900000Y-92433333D01*
X78804761Y-92528571D01*
X78995238Y-92528571D01*
X80804761Y-91576190D02*
X79471428Y-91576190D01*
X79852380Y-91576190D02*
X79661904Y-91480952D01*
X79566666Y-91385714D01*
X79471428Y-91195238D01*
X79471428Y-91004761D01*
X80709523Y-89576190D02*
X80804761Y-89766666D01*
X80804761Y-90147619D01*
X80709523Y-90338095D01*
X80519047Y-90433333D01*
X79757142Y-90433333D01*
X79566666Y-90338095D01*
X79471428Y-90147619D01*
X79471428Y-89766666D01*
X79566666Y-89576190D01*
X79757142Y-89480952D01*
X79947619Y-89480952D01*
X80138095Y-90433333D01*
X79757142Y-87957142D02*
X79852380Y-87671428D01*
X79947619Y-87576190D01*
X80138095Y-87480952D01*
X80423809Y-87480952D01*
X80614285Y-87576190D01*
X80709523Y-87671428D01*
X80804761Y-87861904D01*
X80804761Y-88623809D01*
X78804761Y-88623809D01*
X78804761Y-87957142D01*
X78900000Y-87766666D01*
X78995238Y-87671428D01*
X79185714Y-87576190D01*
X79376190Y-87576190D01*
X79566666Y-87671428D01*
X79661904Y-87766666D01*
X79757142Y-87957142D01*
X79757142Y-88623809D01*
X80709523Y-85861904D02*
X80804761Y-86052380D01*
X80804761Y-86433333D01*
X80709523Y-86623809D01*
X80519047Y-86719047D01*
X79757142Y-86719047D01*
X79566666Y-86623809D01*
X79471428Y-86433333D01*
X79471428Y-86052380D01*
X79566666Y-85861904D01*
X79757142Y-85766666D01*
X79947619Y-85766666D01*
X80138095Y-86719047D01*
X80709523Y-84147619D02*
X80804761Y-84338095D01*
X80804761Y-84719047D01*
X80709523Y-84909523D01*
X80519047Y-85004761D01*
X79757142Y-85004761D01*
X79566666Y-84909523D01*
X79471428Y-84719047D01*
X79471428Y-84338095D01*
X79566666Y-84147619D01*
X79757142Y-84052380D01*
X79947619Y-84052380D01*
X80138095Y-85004761D01*
X79471428Y-83480952D02*
X79471428Y-82719047D01*
X78804761Y-83195238D02*
X80519047Y-83195238D01*
X80709523Y-83100000D01*
X80804761Y-82909523D01*
X80804761Y-82719047D01*
X80804761Y-81766666D02*
X80709523Y-81957142D01*
X80519047Y-82052380D01*
X78804761Y-82052380D01*
X80709523Y-80242857D02*
X80804761Y-80433333D01*
X80804761Y-80814285D01*
X80709523Y-81004761D01*
X80519047Y-81100000D01*
X79757142Y-81100000D01*
X79566666Y-81004761D01*
X79471428Y-80814285D01*
X79471428Y-80433333D01*
X79566666Y-80242857D01*
X79757142Y-80147619D01*
X79947619Y-80147619D01*
X80138095Y-81100000D01*
X78995238Y-77861904D02*
X78900000Y-77766666D01*
X78804761Y-77576190D01*
X78804761Y-77100000D01*
X78900000Y-76909523D01*
X78995238Y-76814285D01*
X79185714Y-76719047D01*
X79376190Y-76719047D01*
X79661904Y-76814285D01*
X80804761Y-77957142D01*
X80804761Y-76719047D01*
X79757142Y-74338095D02*
X79757142Y-73671428D01*
X80804761Y-73385714D02*
X80804761Y-74338095D01*
X78804761Y-74338095D01*
X78804761Y-73385714D01*
X80709523Y-72623809D02*
X80804761Y-72338095D01*
X80804761Y-71861904D01*
X80709523Y-71671428D01*
X80614285Y-71576190D01*
X80423809Y-71480952D01*
X80233333Y-71480952D01*
X80042857Y-71576190D01*
X79947619Y-71671428D01*
X79852380Y-71861904D01*
X79757142Y-72242857D01*
X79661904Y-72433333D01*
X79566666Y-72528571D01*
X79376190Y-72623809D01*
X79185714Y-72623809D01*
X78995238Y-72528571D01*
X78900000Y-72433333D01*
X78804761Y-72242857D01*
X78804761Y-71766666D01*
X78900000Y-71480952D01*
X80804761Y-70623809D02*
X78804761Y-70623809D01*
X78804761Y-69861904D01*
X78900000Y-69671428D01*
X78995238Y-69576190D01*
X79185714Y-69480952D01*
X79471428Y-69480952D01*
X79661904Y-69576190D01*
X79757142Y-69671428D01*
X79852380Y-69861904D01*
X79852380Y-70623809D01*
X78804761Y-68814285D02*
X78804761Y-67576190D01*
X79566666Y-68242857D01*
X79566666Y-67957142D01*
X79661904Y-67766666D01*
X79757142Y-67671428D01*
X79947619Y-67576190D01*
X80423809Y-67576190D01*
X80614285Y-67671428D01*
X80709523Y-67766666D01*
X80804761Y-67957142D01*
X80804761Y-68528571D01*
X80709523Y-68719047D01*
X80614285Y-68814285D01*
X78995238Y-66814285D02*
X78900000Y-66719047D01*
X78804761Y-66528571D01*
X78804761Y-66052380D01*
X78900000Y-65861904D01*
X78995238Y-65766666D01*
X79185714Y-65671428D01*
X79376190Y-65671428D01*
X79661904Y-65766666D01*
X80804761Y-66909523D01*
X80804761Y-65671428D01*
X80042857Y-64814285D02*
X80042857Y-63290476D01*
X79757142Y-62338095D02*
X79757142Y-61671428D01*
X80804761Y-61385714D02*
X80804761Y-62338095D01*
X78804761Y-62338095D01*
X78804761Y-61385714D01*
D11*
X94913095Y-74377380D02*
X95579761Y-74377380D01*
X95151190Y-75377380D01*
X95913095Y-75329761D02*
X96055952Y-75377380D01*
X96294047Y-75377380D01*
X96389285Y-75329761D01*
X96436904Y-75282142D01*
X96484523Y-75186904D01*
X96484523Y-75091666D01*
X96436904Y-74996428D01*
X96389285Y-74948809D01*
X96294047Y-74901190D01*
X96103571Y-74853571D01*
X96008333Y-74805952D01*
X95960714Y-74758333D01*
X95913095Y-74663095D01*
X95913095Y-74567857D01*
X95960714Y-74472619D01*
X96008333Y-74425000D01*
X96103571Y-74377380D01*
X96341666Y-74377380D01*
X96484523Y-74425000D01*
X96913095Y-74853571D02*
X97246428Y-74853571D01*
X97389285Y-75377380D02*
X96913095Y-75377380D01*
X96913095Y-74377380D01*
X97389285Y-74377380D01*
X98341666Y-74425000D02*
X98246428Y-74377380D01*
X98103571Y-74377380D01*
X97960714Y-74425000D01*
X97865476Y-74520238D01*
X97817857Y-74615476D01*
X97770238Y-74805952D01*
X97770238Y-74948809D01*
X97817857Y-75139285D01*
X97865476Y-75234523D01*
X97960714Y-75329761D01*
X98103571Y-75377380D01*
X98198809Y-75377380D01*
X98341666Y-75329761D01*
X98389285Y-75282142D01*
X98389285Y-74948809D01*
X98198809Y-74948809D01*
X94592857Y-90177380D02*
X94259523Y-89701190D01*
X94021428Y-90177380D02*
X94021428Y-89177380D01*
X94402380Y-89177380D01*
X94497619Y-89225000D01*
X94545238Y-89272619D01*
X94592857Y-89367857D01*
X94592857Y-89510714D01*
X94545238Y-89605952D01*
X94497619Y-89653571D01*
X94402380Y-89701190D01*
X94021428Y-89701190D01*
X95545238Y-89225000D02*
X95450000Y-89177380D01*
X95307142Y-89177380D01*
X95164285Y-89225000D01*
X95069047Y-89320238D01*
X95021428Y-89415476D01*
X94973809Y-89605952D01*
X94973809Y-89748809D01*
X95021428Y-89939285D01*
X95069047Y-90034523D01*
X95164285Y-90129761D01*
X95307142Y-90177380D01*
X95402380Y-90177380D01*
X95545238Y-90129761D01*
X95592857Y-90082142D01*
X95592857Y-89748809D01*
X95402380Y-89748809D01*
X96354761Y-89653571D02*
X96497619Y-89701190D01*
X96545238Y-89748809D01*
X96592857Y-89844047D01*
X96592857Y-89986904D01*
X96545238Y-90082142D01*
X96497619Y-90129761D01*
X96402380Y-90177380D01*
X96021428Y-90177380D01*
X96021428Y-89177380D01*
X96354761Y-89177380D01*
X96450000Y-89225000D01*
X96497619Y-89272619D01*
X96545238Y-89367857D01*
X96545238Y-89463095D01*
X96497619Y-89558333D01*
X96450000Y-89605952D01*
X96354761Y-89653571D01*
X96021428Y-89653571D01*
X98259523Y-90177380D02*
X97783333Y-90177380D01*
X97783333Y-89177380D01*
X98973809Y-90129761D02*
X98878571Y-90177380D01*
X98688095Y-90177380D01*
X98592857Y-90129761D01*
X98545238Y-90034523D01*
X98545238Y-89653571D01*
X98592857Y-89558333D01*
X98688095Y-89510714D01*
X98878571Y-89510714D01*
X98973809Y-89558333D01*
X99021428Y-89653571D01*
X99021428Y-89748809D01*
X98545238Y-89844047D01*
X99878571Y-90177380D02*
X99878571Y-89177380D01*
X99878571Y-90129761D02*
X99783333Y-90177380D01*
X99592857Y-90177380D01*
X99497619Y-90129761D01*
X99450000Y-90082142D01*
X99402380Y-89986904D01*
X99402380Y-89701190D01*
X99450000Y-89605952D01*
X99497619Y-89558333D01*
X99592857Y-89510714D01*
X99783333Y-89510714D01*
X99878571Y-89558333D01*
X62089285Y-80352380D02*
X61613095Y-80352380D01*
X61613095Y-79352380D01*
X62851190Y-80352380D02*
X62851190Y-79828571D01*
X62803571Y-79733333D01*
X62708333Y-79685714D01*
X62517857Y-79685714D01*
X62422619Y-79733333D01*
X62851190Y-80304761D02*
X62755952Y-80352380D01*
X62517857Y-80352380D01*
X62422619Y-80304761D01*
X62375000Y-80209523D01*
X62375000Y-80114285D01*
X62422619Y-80019047D01*
X62517857Y-79971428D01*
X62755952Y-79971428D01*
X62851190Y-79923809D01*
X63279761Y-80304761D02*
X63375000Y-80352380D01*
X63565476Y-80352380D01*
X63660714Y-80304761D01*
X63708333Y-80209523D01*
X63708333Y-80161904D01*
X63660714Y-80066666D01*
X63565476Y-80019047D01*
X63422619Y-80019047D01*
X63327380Y-79971428D01*
X63279761Y-79876190D01*
X63279761Y-79828571D01*
X63327380Y-79733333D01*
X63422619Y-79685714D01*
X63565476Y-79685714D01*
X63660714Y-79733333D01*
X64517857Y-80304761D02*
X64422619Y-80352380D01*
X64232142Y-80352380D01*
X64136904Y-80304761D01*
X64089285Y-80209523D01*
X64089285Y-79828571D01*
X64136904Y-79733333D01*
X64232142Y-79685714D01*
X64422619Y-79685714D01*
X64517857Y-79733333D01*
X64565476Y-79828571D01*
X64565476Y-79923809D01*
X64089285Y-80019047D01*
X64994047Y-80352380D02*
X64994047Y-79685714D01*
X64994047Y-79876190D02*
X65041666Y-79780952D01*
X65089285Y-79733333D01*
X65184523Y-79685714D01*
X65279761Y-79685714D01*
X78523809Y-48652380D02*
X79142857Y-48652380D01*
X78809523Y-49033333D01*
X78952380Y-49033333D01*
X79047619Y-49080952D01*
X79095238Y-49128571D01*
X79142857Y-49223809D01*
X79142857Y-49461904D01*
X79095238Y-49557142D01*
X79047619Y-49604761D01*
X78952380Y-49652380D01*
X78666666Y-49652380D01*
X78571428Y-49604761D01*
X78523809Y-49557142D01*
X79571428Y-49557142D02*
X79619047Y-49604761D01*
X79571428Y-49652380D01*
X79523809Y-49604761D01*
X79571428Y-49557142D01*
X79571428Y-49652380D01*
X79952380Y-48652380D02*
X80571428Y-48652380D01*
X80238095Y-49033333D01*
X80380952Y-49033333D01*
X80476190Y-49080952D01*
X80523809Y-49128571D01*
X80571428Y-49223809D01*
X80571428Y-49461904D01*
X80523809Y-49557142D01*
X80476190Y-49604761D01*
X80380952Y-49652380D01*
X80095238Y-49652380D01*
X80000000Y-49604761D01*
X79952380Y-49557142D01*
X80857142Y-48652380D02*
X81190476Y-49652380D01*
X81523809Y-48652380D01*
X91838095Y-48700000D02*
X91742857Y-48652380D01*
X91600000Y-48652380D01*
X91457142Y-48700000D01*
X91361904Y-48795238D01*
X91314285Y-48890476D01*
X91266666Y-49080952D01*
X91266666Y-49223809D01*
X91314285Y-49414285D01*
X91361904Y-49509523D01*
X91457142Y-49604761D01*
X91600000Y-49652380D01*
X91695238Y-49652380D01*
X91838095Y-49604761D01*
X91885714Y-49557142D01*
X91885714Y-49223809D01*
X91695238Y-49223809D01*
X92314285Y-49652380D02*
X92314285Y-48652380D01*
X92885714Y-49652380D01*
X92885714Y-48652380D01*
X93361904Y-49652380D02*
X93361904Y-48652380D01*
X93600000Y-48652380D01*
X93742857Y-48700000D01*
X93838095Y-48795238D01*
X93885714Y-48890476D01*
X93933333Y-49080952D01*
X93933333Y-49223809D01*
X93885714Y-49414285D01*
X93838095Y-49509523D01*
X93742857Y-49604761D01*
X93600000Y-49652380D01*
X93361904Y-49652380D01*
X89453571Y-36328571D02*
X89596428Y-36376190D01*
X89644047Y-36423809D01*
X89691666Y-36519047D01*
X89691666Y-36661904D01*
X89644047Y-36757142D01*
X89596428Y-36804761D01*
X89501190Y-36852380D01*
X89120238Y-36852380D01*
X89120238Y-35852380D01*
X89453571Y-35852380D01*
X89548809Y-35900000D01*
X89596428Y-35947619D01*
X89644047Y-36042857D01*
X89644047Y-36138095D01*
X89596428Y-36233333D01*
X89548809Y-36280952D01*
X89453571Y-36328571D01*
X89120238Y-36328571D01*
X90548809Y-36852380D02*
X90548809Y-36328571D01*
X90501190Y-36233333D01*
X90405952Y-36185714D01*
X90215476Y-36185714D01*
X90120238Y-36233333D01*
X90548809Y-36804761D02*
X90453571Y-36852380D01*
X90215476Y-36852380D01*
X90120238Y-36804761D01*
X90072619Y-36709523D01*
X90072619Y-36614285D01*
X90120238Y-36519047D01*
X90215476Y-36471428D01*
X90453571Y-36471428D01*
X90548809Y-36423809D01*
X90882142Y-36185714D02*
X91263095Y-36185714D01*
X91025000Y-35852380D02*
X91025000Y-36709523D01*
X91072619Y-36804761D01*
X91167857Y-36852380D01*
X91263095Y-36852380D01*
X91453571Y-36185714D02*
X91834523Y-36185714D01*
X91596428Y-35852380D02*
X91596428Y-36709523D01*
X91644047Y-36804761D01*
X91739285Y-36852380D01*
X91834523Y-36852380D01*
X92548809Y-36804761D02*
X92453571Y-36852380D01*
X92263095Y-36852380D01*
X92167857Y-36804761D01*
X92120238Y-36709523D01*
X92120238Y-36328571D01*
X92167857Y-36233333D01*
X92263095Y-36185714D01*
X92453571Y-36185714D01*
X92548809Y-36233333D01*
X92596428Y-36328571D01*
X92596428Y-36423809D01*
X92120238Y-36519047D01*
X93025000Y-36852380D02*
X93025000Y-36185714D01*
X93025000Y-36376190D02*
X93072619Y-36280952D01*
X93120238Y-36233333D01*
X93215476Y-36185714D01*
X93310714Y-36185714D01*
X93548809Y-36185714D02*
X93786904Y-36852380D01*
X94025000Y-36185714D02*
X93786904Y-36852380D01*
X93691666Y-37090476D01*
X93644047Y-37138095D01*
X93548809Y-37185714D01*
X78485714Y-36804761D02*
X78628571Y-36852380D01*
X78866666Y-36852380D01*
X78961904Y-36804761D01*
X79009523Y-36757142D01*
X79057142Y-36661904D01*
X79057142Y-36566666D01*
X79009523Y-36471428D01*
X78961904Y-36423809D01*
X78866666Y-36376190D01*
X78676190Y-36328571D01*
X78580952Y-36280952D01*
X78533333Y-36233333D01*
X78485714Y-36138095D01*
X78485714Y-36042857D01*
X78533333Y-35947619D01*
X78580952Y-35900000D01*
X78676190Y-35852380D01*
X78914285Y-35852380D01*
X79057142Y-35900000D01*
X79390476Y-36185714D02*
X79580952Y-36852380D01*
X79771428Y-36376190D01*
X79961904Y-36852380D01*
X80152380Y-36185714D01*
X80533333Y-36852380D02*
X80533333Y-36185714D01*
X80533333Y-35852380D02*
X80485714Y-35900000D01*
X80533333Y-35947619D01*
X80580952Y-35900000D01*
X80533333Y-35852380D01*
X80533333Y-35947619D01*
X80866666Y-36185714D02*
X81247619Y-36185714D01*
X81009523Y-35852380D02*
X81009523Y-36709523D01*
X81057142Y-36804761D01*
X81152380Y-36852380D01*
X81247619Y-36852380D01*
X82009523Y-36804761D02*
X81914285Y-36852380D01*
X81723809Y-36852380D01*
X81628571Y-36804761D01*
X81580952Y-36757142D01*
X81533333Y-36661904D01*
X81533333Y-36376190D01*
X81580952Y-36280952D01*
X81628571Y-36233333D01*
X81723809Y-36185714D01*
X81914285Y-36185714D01*
X82009523Y-36233333D01*
X82438095Y-36852380D02*
X82438095Y-35852380D01*
X82866666Y-36852380D02*
X82866666Y-36328571D01*
X82819047Y-36233333D01*
X82723809Y-36185714D01*
X82580952Y-36185714D01*
X82485714Y-36233333D01*
X82438095Y-36280952D01*
X65475000Y-36478571D02*
X65808333Y-36478571D01*
X65951190Y-37002380D02*
X65475000Y-37002380D01*
X65475000Y-36002380D01*
X65951190Y-36002380D01*
X66332142Y-36954761D02*
X66475000Y-37002380D01*
X66713095Y-37002380D01*
X66808333Y-36954761D01*
X66855952Y-36907142D01*
X66903571Y-36811904D01*
X66903571Y-36716666D01*
X66855952Y-36621428D01*
X66808333Y-36573809D01*
X66713095Y-36526190D01*
X66522619Y-36478571D01*
X66427380Y-36430952D01*
X66379761Y-36383333D01*
X66332142Y-36288095D01*
X66332142Y-36192857D01*
X66379761Y-36097619D01*
X66427380Y-36050000D01*
X66522619Y-36002380D01*
X66760714Y-36002380D01*
X66903571Y-36050000D01*
X67332142Y-37002380D02*
X67332142Y-36002380D01*
X67713095Y-36002380D01*
X67808333Y-36050000D01*
X67855952Y-36097619D01*
X67903571Y-36192857D01*
X67903571Y-36335714D01*
X67855952Y-36430952D01*
X67808333Y-36478571D01*
X67713095Y-36526190D01*
X67332142Y-36526190D01*
X68236904Y-36002380D02*
X68855952Y-36002380D01*
X68522619Y-36383333D01*
X68665476Y-36383333D01*
X68760714Y-36430952D01*
X68808333Y-36478571D01*
X68855952Y-36573809D01*
X68855952Y-36811904D01*
X68808333Y-36907142D01*
X68760714Y-36954761D01*
X68665476Y-37002380D01*
X68379761Y-37002380D01*
X68284523Y-36954761D01*
X68236904Y-36907142D01*
X69236904Y-36097619D02*
X69284523Y-36050000D01*
X69379761Y-36002380D01*
X69617857Y-36002380D01*
X69713095Y-36050000D01*
X69760714Y-36097619D01*
X69808333Y-36192857D01*
X69808333Y-36288095D01*
X69760714Y-36430952D01*
X69189285Y-37002380D01*
X69808333Y-37002380D01*
X70998809Y-37002380D02*
X70998809Y-36002380D01*
X70998809Y-36383333D02*
X71094047Y-36335714D01*
X71284523Y-36335714D01*
X71379761Y-36383333D01*
X71427380Y-36430952D01*
X71475000Y-36526190D01*
X71475000Y-36811904D01*
X71427380Y-36907142D01*
X71379761Y-36954761D01*
X71284523Y-37002380D01*
X71094047Y-37002380D01*
X70998809Y-36954761D01*
X72332142Y-37002380D02*
X72332142Y-36478571D01*
X72284523Y-36383333D01*
X72189285Y-36335714D01*
X71998809Y-36335714D01*
X71903571Y-36383333D01*
X72332142Y-36954761D02*
X72236904Y-37002380D01*
X71998809Y-37002380D01*
X71903571Y-36954761D01*
X71855952Y-36859523D01*
X71855952Y-36764285D01*
X71903571Y-36669047D01*
X71998809Y-36621428D01*
X72236904Y-36621428D01*
X72332142Y-36573809D01*
X72665476Y-36335714D02*
X73046428Y-36335714D01*
X72808333Y-36002380D02*
X72808333Y-36859523D01*
X72855952Y-36954761D01*
X72951190Y-37002380D01*
X73046428Y-37002380D01*
X73236904Y-36335714D02*
X73617857Y-36335714D01*
X73379761Y-36002380D02*
X73379761Y-36859523D01*
X73427380Y-36954761D01*
X73522619Y-37002380D01*
X73617857Y-37002380D01*
X64776190Y-48652380D02*
X65109523Y-49652380D01*
X65442857Y-48652380D01*
X65776190Y-49652380D02*
X65776190Y-48985714D01*
X65776190Y-48652380D02*
X65728571Y-48700000D01*
X65776190Y-48747619D01*
X65823809Y-48700000D01*
X65776190Y-48652380D01*
X65776190Y-48747619D01*
X66252380Y-48985714D02*
X66252380Y-49652380D01*
X66252380Y-49080952D02*
X66300000Y-49033333D01*
X66395238Y-48985714D01*
X66538095Y-48985714D01*
X66633333Y-49033333D01*
X66680952Y-49128571D01*
X66680952Y-49652380D01*
%TO.C,R2*%
X88713333Y-44752380D02*
X88380000Y-44276190D01*
X88141904Y-44752380D02*
X88141904Y-43752380D01*
X88522857Y-43752380D01*
X88618095Y-43800000D01*
X88665714Y-43847619D01*
X88713333Y-43942857D01*
X88713333Y-44085714D01*
X88665714Y-44180952D01*
X88618095Y-44228571D01*
X88522857Y-44276190D01*
X88141904Y-44276190D01*
X89094285Y-43847619D02*
X89141904Y-43800000D01*
X89237142Y-43752380D01*
X89475238Y-43752380D01*
X89570476Y-43800000D01*
X89618095Y-43847619D01*
X89665714Y-43942857D01*
X89665714Y-44038095D01*
X89618095Y-44180952D01*
X89046666Y-44752380D01*
X89665714Y-44752380D01*
%TO.C,R1*%
X73473333Y-44752380D02*
X73140000Y-44276190D01*
X72901904Y-44752380D02*
X72901904Y-43752380D01*
X73282857Y-43752380D01*
X73378095Y-43800000D01*
X73425714Y-43847619D01*
X73473333Y-43942857D01*
X73473333Y-44085714D01*
X73425714Y-44180952D01*
X73378095Y-44228571D01*
X73282857Y-44276190D01*
X72901904Y-44276190D01*
X74425714Y-44752380D02*
X73854285Y-44752380D01*
X74140000Y-44752380D02*
X74140000Y-43752380D01*
X74044761Y-43895238D01*
X73949523Y-43990476D01*
X73854285Y-44038095D01*
D13*
%TO.C,J14*%
X64855000Y-71295000D02*
X62195000Y-71295000D01*
X64855000Y-76435000D02*
X64855000Y-71295000D01*
X64855000Y-77705000D02*
X64855000Y-79035000D01*
X62195000Y-76435000D02*
X62195000Y-71295000D01*
X64855000Y-79035000D02*
X63525000Y-79035000D01*
X64855000Y-76435000D02*
X62195000Y-76435000D01*
%TO.C,J6*%
X91435000Y-58565000D02*
X92765000Y-58565000D01*
X92765000Y-61165000D02*
X92765000Y-104405000D01*
X90105000Y-61165000D02*
X90105000Y-104405000D01*
X90105000Y-104405000D02*
X92765000Y-104405000D01*
X92765000Y-58565000D02*
X92765000Y-59895000D01*
X90105000Y-61165000D02*
X92765000Y-61165000D01*
%TO.C,J3*%
X71375000Y-43160000D02*
X71375000Y-42960000D01*
X72225000Y-38850000D02*
X67325000Y-38850000D01*
X67325000Y-38850000D02*
X67325000Y-42350000D01*
X72835000Y-40350000D02*
X72225000Y-40350000D01*
X69675000Y-39350000D02*
X69675000Y-38850000D01*
X70275000Y-42960000D02*
X70275000Y-42350000D01*
X72225000Y-42350000D02*
X72225000Y-38850000D01*
X71075000Y-42960000D02*
X71075000Y-43160000D01*
X72835000Y-42960000D02*
X72835000Y-38240000D01*
X66715000Y-42960000D02*
X72835000Y-42960000D01*
X70275000Y-42350000D02*
X72225000Y-42350000D01*
X66715000Y-40350000D02*
X67325000Y-40350000D01*
X67325000Y-42350000D02*
X69275000Y-42350000D01*
X72835000Y-41650000D02*
X72225000Y-41650000D01*
X69775000Y-38850000D02*
X69775000Y-39350000D01*
X69875000Y-39350000D02*
X69675000Y-39350000D01*
X66715000Y-38240000D02*
X66715000Y-42960000D01*
X71075000Y-43060000D02*
X71375000Y-43060000D01*
X69275000Y-42350000D02*
X69275000Y-42960000D01*
X73135000Y-43260000D02*
X73135000Y-42010000D01*
X71885000Y-43260000D02*
X73135000Y-43260000D01*
X72835000Y-38240000D02*
X66715000Y-38240000D01*
X66715000Y-41650000D02*
X67325000Y-41650000D01*
X71075000Y-43160000D02*
X71375000Y-43160000D01*
X69875000Y-38850000D02*
X69875000Y-39350000D01*
%TO.C,J2*%
X82610000Y-43035000D02*
X82610000Y-42835000D01*
X83460000Y-38725000D02*
X78560000Y-38725000D01*
X78560000Y-38725000D02*
X78560000Y-42225000D01*
X84070000Y-40225000D02*
X83460000Y-40225000D01*
X80910000Y-39225000D02*
X80910000Y-38725000D01*
X81510000Y-42835000D02*
X81510000Y-42225000D01*
X83460000Y-42225000D02*
X83460000Y-38725000D01*
X82310000Y-42835000D02*
X82310000Y-43035000D01*
X84070000Y-42835000D02*
X84070000Y-38115000D01*
X77950000Y-42835000D02*
X84070000Y-42835000D01*
X81510000Y-42225000D02*
X83460000Y-42225000D01*
X77950000Y-40225000D02*
X78560000Y-40225000D01*
X78560000Y-42225000D02*
X80510000Y-42225000D01*
X84070000Y-41525000D02*
X83460000Y-41525000D01*
X81010000Y-38725000D02*
X81010000Y-39225000D01*
X81110000Y-39225000D02*
X80910000Y-39225000D01*
X77950000Y-38115000D02*
X77950000Y-42835000D01*
X82310000Y-42935000D02*
X82610000Y-42935000D01*
X80510000Y-42225000D02*
X80510000Y-42835000D01*
X84370000Y-43135000D02*
X84370000Y-41885000D01*
X83120000Y-43135000D02*
X84370000Y-43135000D01*
X84070000Y-38115000D02*
X77950000Y-38115000D01*
X77950000Y-41525000D02*
X78560000Y-41525000D01*
X82310000Y-43035000D02*
X82610000Y-43035000D01*
X81110000Y-38725000D02*
X81110000Y-39225000D01*
%TO.C,J1*%
X93350000Y-42985000D02*
X93350000Y-42785000D01*
X94200000Y-38675000D02*
X89300000Y-38675000D01*
X89300000Y-38675000D02*
X89300000Y-42175000D01*
X94810000Y-40175000D02*
X94200000Y-40175000D01*
X91650000Y-39175000D02*
X91650000Y-38675000D01*
X92250000Y-42785000D02*
X92250000Y-42175000D01*
X94200000Y-42175000D02*
X94200000Y-38675000D01*
X93050000Y-42785000D02*
X93050000Y-42985000D01*
X94810000Y-42785000D02*
X94810000Y-38065000D01*
X88690000Y-42785000D02*
X94810000Y-42785000D01*
X92250000Y-42175000D02*
X94200000Y-42175000D01*
X88690000Y-40175000D02*
X89300000Y-40175000D01*
X89300000Y-42175000D02*
X91250000Y-42175000D01*
X94810000Y-41475000D02*
X94200000Y-41475000D01*
X91750000Y-38675000D02*
X91750000Y-39175000D01*
X91850000Y-39175000D02*
X91650000Y-39175000D01*
X88690000Y-38065000D02*
X88690000Y-42785000D01*
X93050000Y-42885000D02*
X93350000Y-42885000D01*
X91250000Y-42175000D02*
X91250000Y-42785000D01*
X95110000Y-43085000D02*
X95110000Y-41835000D01*
X93860000Y-43085000D02*
X95110000Y-43085000D01*
X94810000Y-38065000D02*
X88690000Y-38065000D01*
X88690000Y-41475000D02*
X89300000Y-41475000D01*
X93050000Y-42985000D02*
X93350000Y-42985000D01*
X91850000Y-38675000D02*
X91850000Y-39175000D01*
%TO.C,J13*%
X76090000Y-50420000D02*
X76090000Y-53080000D01*
X81230000Y-50420000D02*
X76090000Y-50420000D01*
X82500000Y-50420000D02*
X83830000Y-50420000D01*
X81230000Y-53080000D02*
X76090000Y-53080000D01*
X83830000Y-50420000D02*
X83830000Y-51750000D01*
X81230000Y-50420000D02*
X81230000Y-53080000D01*
%TO.C,J12*%
X88590000Y-50420000D02*
X88590000Y-53080000D01*
X93730000Y-50420000D02*
X88590000Y-50420000D01*
X95000000Y-50420000D02*
X96330000Y-50420000D01*
X93730000Y-53080000D02*
X88590000Y-53080000D01*
X96330000Y-50420000D02*
X96330000Y-51750000D01*
X93730000Y-50420000D02*
X93730000Y-53080000D01*
%TO.C,J11*%
X97845000Y-61165000D02*
X97845000Y-71385000D01*
X95185000Y-58565000D02*
X96515000Y-58565000D01*
X95185000Y-61165000D02*
X95185000Y-71385000D01*
X95185000Y-71385000D02*
X97845000Y-71385000D01*
X95185000Y-61165000D02*
X97845000Y-61165000D01*
X95185000Y-59895000D02*
X95185000Y-58565000D01*
%TO.C,J10*%
X64750000Y-53080000D02*
X64750000Y-50420000D01*
X62150000Y-53080000D02*
X62150000Y-51750000D01*
X64750000Y-50420000D02*
X69890000Y-50420000D01*
X63480000Y-53080000D02*
X62150000Y-53080000D01*
X64750000Y-53080000D02*
X69890000Y-53080000D01*
X69890000Y-53080000D02*
X69890000Y-50420000D01*
%TO.C,J9*%
X62165000Y-66245000D02*
X62165000Y-58565000D01*
X64825000Y-67515000D02*
X64825000Y-68845000D01*
X64825000Y-58565000D02*
X62165000Y-58565000D01*
X64825000Y-66245000D02*
X62165000Y-66245000D01*
X64825000Y-68845000D02*
X63495000Y-68845000D01*
X64825000Y-66245000D02*
X64825000Y-58565000D01*
%TO.C,R2*%
X92920000Y-46670000D02*
X92150000Y-46670000D01*
X84840000Y-46670000D02*
X85610000Y-46670000D01*
X85610000Y-45300000D02*
X85610000Y-48040000D01*
X92150000Y-48040000D02*
X92150000Y-45300000D01*
X85610000Y-48040000D02*
X92150000Y-48040000D01*
X92150000Y-45300000D02*
X85610000Y-45300000D01*
%TO.C,R1*%
X76910000Y-45300000D02*
X70370000Y-45300000D01*
X70370000Y-48040000D02*
X76910000Y-48040000D01*
X76910000Y-48040000D02*
X76910000Y-45300000D01*
X70370000Y-45300000D02*
X70370000Y-48040000D01*
X69600000Y-46670000D02*
X70370000Y-46670000D01*
X77680000Y-46670000D02*
X76910000Y-46670000D01*
%TO.C,J8*%
X97845000Y-78945000D02*
X97845000Y-86625000D01*
X95185000Y-77675000D02*
X95185000Y-76345000D01*
X95185000Y-86625000D02*
X97845000Y-86625000D01*
X95185000Y-78945000D02*
X97845000Y-78945000D01*
X95185000Y-76345000D02*
X96515000Y-76345000D01*
X95185000Y-78945000D02*
X95185000Y-86625000D01*
%TO.C,J7*%
X95170000Y-93770000D02*
X97830000Y-93770000D01*
X95170000Y-91170000D02*
X96500000Y-91170000D01*
X97830000Y-93770000D02*
X97830000Y-98910000D01*
X95170000Y-92500000D02*
X95170000Y-91170000D01*
X95170000Y-93770000D02*
X95170000Y-98910000D01*
X95170000Y-98910000D02*
X97830000Y-98910000D01*
%TO.C,J5*%
X67245000Y-61165000D02*
X67245000Y-94245000D01*
X69905000Y-58565000D02*
X69905000Y-59895000D01*
X69905000Y-61165000D02*
X69905000Y-94245000D01*
X67245000Y-94245000D02*
X69905000Y-94245000D01*
X68575000Y-58565000D02*
X69905000Y-58565000D01*
X67245000Y-61165000D02*
X69905000Y-61165000D01*
%TO.C,J4*%
X62165000Y-89105000D02*
X62165000Y-81425000D01*
X64825000Y-90375000D02*
X64825000Y-91705000D01*
X64825000Y-81425000D02*
X62165000Y-81425000D01*
X64825000Y-89105000D02*
X62165000Y-89105000D01*
X64825000Y-91705000D02*
X63495000Y-91705000D01*
X64825000Y-89105000D02*
X64825000Y-81425000D01*
%TD*%
M02*
