%TF.GenerationSoftware,KiCad,Pcbnew,6.0.7-f9a2dced07~116~ubuntu20.04.1*%
%TF.CreationDate,2022-07-30T18:15:20+02:00*%
%TF.ProjectId,fatrug,66617472-7567-42e6-9b69-6361645f7063,rev?*%
%TF.SameCoordinates,Original*%
%TF.FileFunction,Legend,Bot*%
%TF.FilePolarity,Positive*%
%FSLAX46Y46*%
G04 Gerber Fmt 4.6, Leading zero omitted, Abs format (unit mm)*
G04 Created by KiCad (PCBNEW 6.0.7-f9a2dced07~116~ubuntu20.04.1) date 2022-07-30 18:15:20*
%MOMM*%
%LPD*%
G01*
G04 APERTURE LIST*
%ADD10C,0.150000*%
G04 APERTURE END LIST*
D10*
X66958333Y-92777380D02*
X66625000Y-93777380D01*
X66291666Y-92777380D01*
X65386904Y-93682142D02*
X65434523Y-93729761D01*
X65577380Y-93777380D01*
X65672619Y-93777380D01*
X65815476Y-93729761D01*
X65910714Y-93634523D01*
X65958333Y-93539285D01*
X66005952Y-93348809D01*
X66005952Y-93205952D01*
X65958333Y-93015476D01*
X65910714Y-92920238D01*
X65815476Y-92825000D01*
X65672619Y-92777380D01*
X65577380Y-92777380D01*
X65434523Y-92825000D01*
X65386904Y-92872619D01*
X64386904Y-93682142D02*
X64434523Y-93729761D01*
X64577380Y-93777380D01*
X64672619Y-93777380D01*
X64815476Y-93729761D01*
X64910714Y-93634523D01*
X64958333Y-93539285D01*
X65005952Y-93348809D01*
X65005952Y-93205952D01*
X64958333Y-93015476D01*
X64910714Y-92920238D01*
X64815476Y-92825000D01*
X64672619Y-92777380D01*
X64577380Y-92777380D01*
X64434523Y-92825000D01*
X64386904Y-92872619D01*
X67501190Y-90077380D02*
X66882142Y-90077380D01*
X67215476Y-90458333D01*
X67072619Y-90458333D01*
X66977380Y-90505952D01*
X66929761Y-90553571D01*
X66882142Y-90648809D01*
X66882142Y-90886904D01*
X66929761Y-90982142D01*
X66977380Y-91029761D01*
X67072619Y-91077380D01*
X67358333Y-91077380D01*
X67453571Y-91029761D01*
X67501190Y-90982142D01*
X66453571Y-90982142D02*
X66405952Y-91029761D01*
X66453571Y-91077380D01*
X66501190Y-91029761D01*
X66453571Y-90982142D01*
X66453571Y-91077380D01*
X66072619Y-90077380D02*
X65453571Y-90077380D01*
X65786904Y-90458333D01*
X65644047Y-90458333D01*
X65548809Y-90505952D01*
X65501190Y-90553571D01*
X65453571Y-90648809D01*
X65453571Y-90886904D01*
X65501190Y-90982142D01*
X65548809Y-91029761D01*
X65644047Y-91077380D01*
X65929761Y-91077380D01*
X66025000Y-91029761D01*
X66072619Y-90982142D01*
X65167857Y-90077380D02*
X64834523Y-91077380D01*
X64501190Y-90077380D01*
X66786904Y-87625000D02*
X66882142Y-87577380D01*
X67025000Y-87577380D01*
X67167857Y-87625000D01*
X67263095Y-87720238D01*
X67310714Y-87815476D01*
X67358333Y-88005952D01*
X67358333Y-88148809D01*
X67310714Y-88339285D01*
X67263095Y-88434523D01*
X67167857Y-88529761D01*
X67025000Y-88577380D01*
X66929761Y-88577380D01*
X66786904Y-88529761D01*
X66739285Y-88482142D01*
X66739285Y-88148809D01*
X66929761Y-88148809D01*
X66310714Y-88577380D02*
X66310714Y-87577380D01*
X65739285Y-88577380D01*
X65739285Y-87577380D01*
X65263095Y-88577380D02*
X65263095Y-87577380D01*
X65025000Y-87577380D01*
X64882142Y-87625000D01*
X64786904Y-87720238D01*
X64739285Y-87815476D01*
X64691666Y-88005952D01*
X64691666Y-88148809D01*
X64739285Y-88339285D01*
X64786904Y-88434523D01*
X64882142Y-88529761D01*
X65025000Y-88577380D01*
X65263095Y-88577380D01*
X67215476Y-85829761D02*
X67072619Y-85877380D01*
X66834523Y-85877380D01*
X66739285Y-85829761D01*
X66691666Y-85782142D01*
X66644047Y-85686904D01*
X66644047Y-85591666D01*
X66691666Y-85496428D01*
X66739285Y-85448809D01*
X66834523Y-85401190D01*
X67025000Y-85353571D01*
X67120238Y-85305952D01*
X67167857Y-85258333D01*
X67215476Y-85163095D01*
X67215476Y-85067857D01*
X67167857Y-84972619D01*
X67120238Y-84925000D01*
X67025000Y-84877380D01*
X66786904Y-84877380D01*
X66644047Y-84925000D01*
X65644047Y-85782142D02*
X65691666Y-85829761D01*
X65834523Y-85877380D01*
X65929761Y-85877380D01*
X66072619Y-85829761D01*
X66167857Y-85734523D01*
X66215476Y-85639285D01*
X66263095Y-85448809D01*
X66263095Y-85305952D01*
X66215476Y-85115476D01*
X66167857Y-85020238D01*
X66072619Y-84925000D01*
X65929761Y-84877380D01*
X65834523Y-84877380D01*
X65691666Y-84925000D01*
X65644047Y-84972619D01*
X64739285Y-85877380D02*
X65215476Y-85877380D01*
X65215476Y-84877380D01*
X67439285Y-83129761D02*
X67296428Y-83177380D01*
X67058333Y-83177380D01*
X66963095Y-83129761D01*
X66915476Y-83082142D01*
X66867857Y-82986904D01*
X66867857Y-82891666D01*
X66915476Y-82796428D01*
X66963095Y-82748809D01*
X67058333Y-82701190D01*
X67248809Y-82653571D01*
X67344047Y-82605952D01*
X67391666Y-82558333D01*
X67439285Y-82463095D01*
X67439285Y-82367857D01*
X67391666Y-82272619D01*
X67344047Y-82225000D01*
X67248809Y-82177380D01*
X67010714Y-82177380D01*
X66867857Y-82225000D01*
X66439285Y-83177380D02*
X66439285Y-82177380D01*
X66201190Y-82177380D01*
X66058333Y-82225000D01*
X65963095Y-82320238D01*
X65915476Y-82415476D01*
X65867857Y-82605952D01*
X65867857Y-82748809D01*
X65915476Y-82939285D01*
X65963095Y-83034523D01*
X66058333Y-83129761D01*
X66201190Y-83177380D01*
X66439285Y-83177380D01*
X65486904Y-82891666D02*
X65010714Y-82891666D01*
X65582142Y-83177380D02*
X65248809Y-82177380D01*
X64915476Y-83177380D01*
X66515476Y-80877380D02*
X67086904Y-80877380D01*
X66801190Y-80877380D02*
X66801190Y-79877380D01*
X66896428Y-80020238D01*
X66991666Y-80115476D01*
X67086904Y-80163095D01*
X65610714Y-79877380D02*
X66086904Y-79877380D01*
X66134523Y-80353571D01*
X66086904Y-80305952D01*
X65991666Y-80258333D01*
X65753571Y-80258333D01*
X65658333Y-80305952D01*
X65610714Y-80353571D01*
X65563095Y-80448809D01*
X65563095Y-80686904D01*
X65610714Y-80782142D01*
X65658333Y-80829761D01*
X65753571Y-80877380D01*
X65991666Y-80877380D01*
X66086904Y-80829761D01*
X66134523Y-80782142D01*
X67134523Y-77277380D02*
X66515476Y-77277380D01*
X66848809Y-77658333D01*
X66705952Y-77658333D01*
X66610714Y-77705952D01*
X66563095Y-77753571D01*
X66515476Y-77848809D01*
X66515476Y-78086904D01*
X66563095Y-78182142D01*
X66610714Y-78229761D01*
X66705952Y-78277380D01*
X66991666Y-78277380D01*
X67086904Y-78229761D01*
X67134523Y-78182142D01*
X65610714Y-77277380D02*
X66086904Y-77277380D01*
X66134523Y-77753571D01*
X66086904Y-77705952D01*
X65991666Y-77658333D01*
X65753571Y-77658333D01*
X65658333Y-77705952D01*
X65610714Y-77753571D01*
X65563095Y-77848809D01*
X65563095Y-78086904D01*
X65610714Y-78182142D01*
X65658333Y-78229761D01*
X65753571Y-78277380D01*
X65991666Y-78277380D01*
X66086904Y-78229761D01*
X66134523Y-78182142D01*
X67034523Y-74877380D02*
X66415476Y-74877380D01*
X66748809Y-75258333D01*
X66605952Y-75258333D01*
X66510714Y-75305952D01*
X66463095Y-75353571D01*
X66415476Y-75448809D01*
X66415476Y-75686904D01*
X66463095Y-75782142D01*
X66510714Y-75829761D01*
X66605952Y-75877380D01*
X66891666Y-75877380D01*
X66986904Y-75829761D01*
X67034523Y-75782142D01*
X65558333Y-75210714D02*
X65558333Y-75877380D01*
X65796428Y-74829761D02*
X66034523Y-75544047D01*
X65415476Y-75544047D01*
X67034523Y-71977380D02*
X66415476Y-71977380D01*
X66748809Y-72358333D01*
X66605952Y-72358333D01*
X66510714Y-72405952D01*
X66463095Y-72453571D01*
X66415476Y-72548809D01*
X66415476Y-72786904D01*
X66463095Y-72882142D01*
X66510714Y-72929761D01*
X66605952Y-72977380D01*
X66891666Y-72977380D01*
X66986904Y-72929761D01*
X67034523Y-72882142D01*
X65939285Y-72977380D02*
X65748809Y-72977380D01*
X65653571Y-72929761D01*
X65605952Y-72882142D01*
X65510714Y-72739285D01*
X65463095Y-72548809D01*
X65463095Y-72167857D01*
X65510714Y-72072619D01*
X65558333Y-72025000D01*
X65653571Y-71977380D01*
X65844047Y-71977380D01*
X65939285Y-72025000D01*
X65986904Y-72072619D01*
X66034523Y-72167857D01*
X66034523Y-72405952D01*
X65986904Y-72501190D01*
X65939285Y-72548809D01*
X65844047Y-72596428D01*
X65653571Y-72596428D01*
X65558333Y-72548809D01*
X65510714Y-72501190D01*
X65463095Y-72405952D01*
X67034523Y-69677380D02*
X66415476Y-69677380D01*
X66748809Y-70058333D01*
X66605952Y-70058333D01*
X66510714Y-70105952D01*
X66463095Y-70153571D01*
X66415476Y-70248809D01*
X66415476Y-70486904D01*
X66463095Y-70582142D01*
X66510714Y-70629761D01*
X66605952Y-70677380D01*
X66891666Y-70677380D01*
X66986904Y-70629761D01*
X67034523Y-70582142D01*
X65558333Y-69677380D02*
X65748809Y-69677380D01*
X65844047Y-69725000D01*
X65891666Y-69772619D01*
X65986904Y-69915476D01*
X66034523Y-70105952D01*
X66034523Y-70486904D01*
X65986904Y-70582142D01*
X65939285Y-70629761D01*
X65844047Y-70677380D01*
X65653571Y-70677380D01*
X65558333Y-70629761D01*
X65510714Y-70582142D01*
X65463095Y-70486904D01*
X65463095Y-70248809D01*
X65510714Y-70153571D01*
X65558333Y-70105952D01*
X65653571Y-70058333D01*
X65844047Y-70058333D01*
X65939285Y-70105952D01*
X65986904Y-70153571D01*
X66034523Y-70248809D01*
X66315476Y-68077380D02*
X66886904Y-68077380D01*
X66601190Y-68077380D02*
X66601190Y-67077380D01*
X66696428Y-67220238D01*
X66791666Y-67315476D01*
X66886904Y-67363095D01*
X65934523Y-67172619D02*
X65886904Y-67125000D01*
X65791666Y-67077380D01*
X65553571Y-67077380D01*
X65458333Y-67125000D01*
X65410714Y-67172619D01*
X65363095Y-67267857D01*
X65363095Y-67363095D01*
X65410714Y-67505952D01*
X65982142Y-68077380D01*
X65363095Y-68077380D01*
X65934523Y-64810714D02*
X65934523Y-65477380D01*
X66172619Y-64429761D02*
X66410714Y-65144047D01*
X65791666Y-65144047D01*
X66215476Y-62877380D02*
X66786904Y-62877380D01*
X66501190Y-62877380D02*
X66501190Y-61877380D01*
X66596428Y-62020238D01*
X66691666Y-62115476D01*
X66786904Y-62163095D01*
X65358333Y-61877380D02*
X65548809Y-61877380D01*
X65644047Y-61925000D01*
X65691666Y-61972619D01*
X65786904Y-62115476D01*
X65834523Y-62305952D01*
X65834523Y-62686904D01*
X65786904Y-62782142D01*
X65739285Y-62829761D01*
X65644047Y-62877380D01*
X65453571Y-62877380D01*
X65358333Y-62829761D01*
X65310714Y-62782142D01*
X65263095Y-62686904D01*
X65263095Y-62448809D01*
X65310714Y-62353571D01*
X65358333Y-62305952D01*
X65453571Y-62258333D01*
X65644047Y-62258333D01*
X65739285Y-62305952D01*
X65786904Y-62353571D01*
X65834523Y-62448809D01*
X66215476Y-60477380D02*
X66786904Y-60477380D01*
X66501190Y-60477380D02*
X66501190Y-59477380D01*
X66596428Y-59620238D01*
X66691666Y-59715476D01*
X66786904Y-59763095D01*
X65882142Y-59477380D02*
X65215476Y-59477380D01*
X65644047Y-60477380D01*
X94972619Y-103877380D02*
X95305952Y-103401190D01*
X95544047Y-103877380D02*
X95544047Y-102877380D01*
X95163095Y-102877380D01*
X95067857Y-102925000D01*
X95020238Y-102972619D01*
X94972619Y-103067857D01*
X94972619Y-103210714D01*
X95020238Y-103305952D01*
X95067857Y-103353571D01*
X95163095Y-103401190D01*
X95544047Y-103401190D01*
X94591666Y-103829761D02*
X94448809Y-103877380D01*
X94210714Y-103877380D01*
X94115476Y-103829761D01*
X94067857Y-103782142D01*
X94020238Y-103686904D01*
X94020238Y-103591666D01*
X94067857Y-103496428D01*
X94115476Y-103448809D01*
X94210714Y-103401190D01*
X94401190Y-103353571D01*
X94496428Y-103305952D01*
X94544047Y-103258333D01*
X94591666Y-103163095D01*
X94591666Y-103067857D01*
X94544047Y-102972619D01*
X94496428Y-102925000D01*
X94401190Y-102877380D01*
X94163095Y-102877380D01*
X94020238Y-102925000D01*
X93734523Y-102877380D02*
X93163095Y-102877380D01*
X93448809Y-103877380D02*
X93448809Y-102877380D01*
X95901190Y-99877380D02*
X95282142Y-99877380D01*
X95615476Y-100258333D01*
X95472619Y-100258333D01*
X95377380Y-100305952D01*
X95329761Y-100353571D01*
X95282142Y-100448809D01*
X95282142Y-100686904D01*
X95329761Y-100782142D01*
X95377380Y-100829761D01*
X95472619Y-100877380D01*
X95758333Y-100877380D01*
X95853571Y-100829761D01*
X95901190Y-100782142D01*
X94853571Y-100782142D02*
X94805952Y-100829761D01*
X94853571Y-100877380D01*
X94901190Y-100829761D01*
X94853571Y-100782142D01*
X94853571Y-100877380D01*
X94472619Y-99877380D02*
X93853571Y-99877380D01*
X94186904Y-100258333D01*
X94044047Y-100258333D01*
X93948809Y-100305952D01*
X93901190Y-100353571D01*
X93853571Y-100448809D01*
X93853571Y-100686904D01*
X93901190Y-100782142D01*
X93948809Y-100829761D01*
X94044047Y-100877380D01*
X94329761Y-100877380D01*
X94425000Y-100829761D01*
X94472619Y-100782142D01*
X93567857Y-99877380D02*
X93234523Y-100877380D01*
X92901190Y-99877380D01*
X94686904Y-95025000D02*
X94782142Y-94977380D01*
X94925000Y-94977380D01*
X95067857Y-95025000D01*
X95163095Y-95120238D01*
X95210714Y-95215476D01*
X95258333Y-95405952D01*
X95258333Y-95548809D01*
X95210714Y-95739285D01*
X95163095Y-95834523D01*
X95067857Y-95929761D01*
X94925000Y-95977380D01*
X94829761Y-95977380D01*
X94686904Y-95929761D01*
X94639285Y-95882142D01*
X94639285Y-95548809D01*
X94829761Y-95548809D01*
X94210714Y-95977380D02*
X94210714Y-94977380D01*
X93639285Y-95977380D01*
X93639285Y-94977380D01*
X93163095Y-95977380D02*
X93163095Y-94977380D01*
X92925000Y-94977380D01*
X92782142Y-95025000D01*
X92686904Y-95120238D01*
X92639285Y-95215476D01*
X92591666Y-95405952D01*
X92591666Y-95548809D01*
X92639285Y-95739285D01*
X92686904Y-95834523D01*
X92782142Y-95929761D01*
X92925000Y-95977380D01*
X93163095Y-95977380D01*
X94663095Y-92853571D02*
X94329761Y-92853571D01*
X94186904Y-93377380D02*
X94663095Y-93377380D01*
X94663095Y-92377380D01*
X94186904Y-92377380D01*
X93758333Y-93377380D02*
X93758333Y-92377380D01*
X93186904Y-93377380D01*
X93186904Y-92377380D01*
X94315476Y-90777380D02*
X94886904Y-90777380D01*
X94601190Y-90777380D02*
X94601190Y-89777380D01*
X94696428Y-89920238D01*
X94791666Y-90015476D01*
X94886904Y-90063095D01*
X93744047Y-90205952D02*
X93839285Y-90158333D01*
X93886904Y-90110714D01*
X93934523Y-90015476D01*
X93934523Y-89967857D01*
X93886904Y-89872619D01*
X93839285Y-89825000D01*
X93744047Y-89777380D01*
X93553571Y-89777380D01*
X93458333Y-89825000D01*
X93410714Y-89872619D01*
X93363095Y-89967857D01*
X93363095Y-90015476D01*
X93410714Y-90110714D01*
X93458333Y-90158333D01*
X93553571Y-90205952D01*
X93744047Y-90205952D01*
X93839285Y-90253571D01*
X93886904Y-90301190D01*
X93934523Y-90396428D01*
X93934523Y-90586904D01*
X93886904Y-90682142D01*
X93839285Y-90729761D01*
X93744047Y-90777380D01*
X93553571Y-90777380D01*
X93458333Y-90729761D01*
X93410714Y-90682142D01*
X93363095Y-90586904D01*
X93363095Y-90396428D01*
X93410714Y-90301190D01*
X93458333Y-90253571D01*
X93553571Y-90205952D01*
X94786904Y-87272619D02*
X94739285Y-87225000D01*
X94644047Y-87177380D01*
X94405952Y-87177380D01*
X94310714Y-87225000D01*
X94263095Y-87272619D01*
X94215476Y-87367857D01*
X94215476Y-87463095D01*
X94263095Y-87605952D01*
X94834523Y-88177380D01*
X94215476Y-88177380D01*
X93882142Y-87177380D02*
X93263095Y-87177380D01*
X93596428Y-87558333D01*
X93453571Y-87558333D01*
X93358333Y-87605952D01*
X93310714Y-87653571D01*
X93263095Y-87748809D01*
X93263095Y-87986904D01*
X93310714Y-88082142D01*
X93358333Y-88129761D01*
X93453571Y-88177380D01*
X93739285Y-88177380D01*
X93834523Y-88129761D01*
X93882142Y-88082142D01*
X94215476Y-85877380D02*
X94786904Y-85877380D01*
X94501190Y-85877380D02*
X94501190Y-84877380D01*
X94596428Y-85020238D01*
X94691666Y-85115476D01*
X94786904Y-85163095D01*
X93739285Y-85877380D02*
X93548809Y-85877380D01*
X93453571Y-85829761D01*
X93405952Y-85782142D01*
X93310714Y-85639285D01*
X93263095Y-85448809D01*
X93263095Y-85067857D01*
X93310714Y-84972619D01*
X93358333Y-84925000D01*
X93453571Y-84877380D01*
X93644047Y-84877380D01*
X93739285Y-84925000D01*
X93786904Y-84972619D01*
X93834523Y-85067857D01*
X93834523Y-85305952D01*
X93786904Y-85401190D01*
X93739285Y-85448809D01*
X93644047Y-85496428D01*
X93453571Y-85496428D01*
X93358333Y-85448809D01*
X93310714Y-85401190D01*
X93263095Y-85305952D01*
X94786904Y-82572619D02*
X94739285Y-82525000D01*
X94644047Y-82477380D01*
X94405952Y-82477380D01*
X94310714Y-82525000D01*
X94263095Y-82572619D01*
X94215476Y-82667857D01*
X94215476Y-82763095D01*
X94263095Y-82905952D01*
X94834523Y-83477380D01*
X94215476Y-83477380D01*
X93834523Y-82572619D02*
X93786904Y-82525000D01*
X93691666Y-82477380D01*
X93453571Y-82477380D01*
X93358333Y-82525000D01*
X93310714Y-82572619D01*
X93263095Y-82667857D01*
X93263095Y-82763095D01*
X93310714Y-82905952D01*
X93882142Y-83477380D01*
X93263095Y-83477380D01*
X94786904Y-79872619D02*
X94739285Y-79825000D01*
X94644047Y-79777380D01*
X94405952Y-79777380D01*
X94310714Y-79825000D01*
X94263095Y-79872619D01*
X94215476Y-79967857D01*
X94215476Y-80063095D01*
X94263095Y-80205952D01*
X94834523Y-80777380D01*
X94215476Y-80777380D01*
X93263095Y-80777380D02*
X93834523Y-80777380D01*
X93548809Y-80777380D02*
X93548809Y-79777380D01*
X93644047Y-79920238D01*
X93739285Y-80015476D01*
X93834523Y-80063095D01*
X94310714Y-77372619D02*
X94263095Y-77325000D01*
X94167857Y-77277380D01*
X93929761Y-77277380D01*
X93834523Y-77325000D01*
X93786904Y-77372619D01*
X93739285Y-77467857D01*
X93739285Y-77563095D01*
X93786904Y-77705952D01*
X94358333Y-78277380D01*
X93739285Y-78277380D01*
X94315476Y-75577380D02*
X94886904Y-75577380D01*
X94601190Y-75577380D02*
X94601190Y-74577380D01*
X94696428Y-74720238D01*
X94791666Y-74815476D01*
X94886904Y-74863095D01*
X93982142Y-74577380D02*
X93363095Y-74577380D01*
X93696428Y-74958333D01*
X93553571Y-74958333D01*
X93458333Y-75005952D01*
X93410714Y-75053571D01*
X93363095Y-75148809D01*
X93363095Y-75386904D01*
X93410714Y-75482142D01*
X93458333Y-75529761D01*
X93553571Y-75577380D01*
X93839285Y-75577380D01*
X93934523Y-75529761D01*
X93982142Y-75482142D01*
X94215476Y-73077380D02*
X94786904Y-73077380D01*
X94501190Y-73077380D02*
X94501190Y-72077380D01*
X94596428Y-72220238D01*
X94691666Y-72315476D01*
X94786904Y-72363095D01*
X93358333Y-72410714D02*
X93358333Y-73077380D01*
X93596428Y-72029761D02*
X93834523Y-72744047D01*
X93215476Y-72744047D01*
X94172619Y-69377380D02*
X94077380Y-69377380D01*
X93982142Y-69425000D01*
X93934523Y-69472619D01*
X93886904Y-69567857D01*
X93839285Y-69758333D01*
X93839285Y-69996428D01*
X93886904Y-70186904D01*
X93934523Y-70282142D01*
X93982142Y-70329761D01*
X94077380Y-70377380D01*
X94172619Y-70377380D01*
X94267857Y-70329761D01*
X94315476Y-70282142D01*
X94363095Y-70186904D01*
X94410714Y-69996428D01*
X94410714Y-69758333D01*
X94363095Y-69567857D01*
X94315476Y-69472619D01*
X94267857Y-69425000D01*
X94172619Y-69377380D01*
X94886904Y-67172619D02*
X94839285Y-67125000D01*
X94744047Y-67077380D01*
X94505952Y-67077380D01*
X94410714Y-67125000D01*
X94363095Y-67172619D01*
X94315476Y-67267857D01*
X94315476Y-67363095D01*
X94363095Y-67505952D01*
X94934523Y-68077380D01*
X94315476Y-68077380D01*
X93458333Y-67077380D02*
X93648809Y-67077380D01*
X93744047Y-67125000D01*
X93791666Y-67172619D01*
X93886904Y-67315476D01*
X93934523Y-67505952D01*
X93934523Y-67886904D01*
X93886904Y-67982142D01*
X93839285Y-68029761D01*
X93744047Y-68077380D01*
X93553571Y-68077380D01*
X93458333Y-68029761D01*
X93410714Y-67982142D01*
X93363095Y-67886904D01*
X93363095Y-67648809D01*
X93410714Y-67553571D01*
X93458333Y-67505952D01*
X93553571Y-67458333D01*
X93744047Y-67458333D01*
X93839285Y-67505952D01*
X93886904Y-67553571D01*
X93934523Y-67648809D01*
X94686904Y-64272619D02*
X94639285Y-64225000D01*
X94544047Y-64177380D01*
X94305952Y-64177380D01*
X94210714Y-64225000D01*
X94163095Y-64272619D01*
X94115476Y-64367857D01*
X94115476Y-64463095D01*
X94163095Y-64605952D01*
X94734523Y-65177380D01*
X94115476Y-65177380D01*
X93210714Y-64177380D02*
X93686904Y-64177380D01*
X93734523Y-64653571D01*
X93686904Y-64605952D01*
X93591666Y-64558333D01*
X93353571Y-64558333D01*
X93258333Y-64605952D01*
X93210714Y-64653571D01*
X93163095Y-64748809D01*
X93163095Y-64986904D01*
X93210714Y-65082142D01*
X93258333Y-65129761D01*
X93353571Y-65177380D01*
X93591666Y-65177380D01*
X93686904Y-65129761D01*
X93734523Y-65082142D01*
X93739285Y-62877380D02*
X94310714Y-62877380D01*
X94025000Y-62877380D02*
X94025000Y-61877380D01*
X94120238Y-62020238D01*
X94215476Y-62115476D01*
X94310714Y-62163095D01*
X94458333Y-59277380D02*
X93839285Y-59277380D01*
X94172619Y-59658333D01*
X94029761Y-59658333D01*
X93934523Y-59705952D01*
X93886904Y-59753571D01*
X93839285Y-59848809D01*
X93839285Y-60086904D01*
X93886904Y-60182142D01*
X93934523Y-60229761D01*
X94029761Y-60277380D01*
X94315476Y-60277380D01*
X94410714Y-60229761D01*
X94458333Y-60182142D01*
M02*
