%TF.GenerationSoftware,KiCad,Pcbnew,6.0.7-f9a2dced07~116~ubuntu20.04.1*%
%TF.CreationDate,2022-07-30T18:16:04+02:00*%
%TF.ProjectId,fatrug,66617472-7567-42e6-9b69-6361645f7063,rev?*%
%TF.SameCoordinates,Original*%
%TF.FileFunction,Drillmap*%
%TF.FilePolarity,Positive*%
%FSLAX45Y45*%
G04 Gerber Fmt 4.5, Leading zero omitted, Abs format (unit mm)*
G04 Created by KiCad (PCBNEW 6.0.7-f9a2dced07~116~ubuntu20.04.1) date 2022-07-30 18:16:04*
%MOMM*%
%LPD*%
G01*
G04 APERTURE LIST*
%ADD10C,0.100000*%
%ADD11C,0.200000*%
%ADD12C,0.075000*%
%ADD13C,0.080000*%
G04 APERTURE END LIST*
D10*
X5842000Y-10872500D02*
X5842000Y-3302000D01*
X10160000Y-10872500D02*
X5842000Y-10872500D01*
X10160000Y-3302000D02*
X10160000Y-10872500D01*
X5842000Y-3302000D02*
X10160000Y-3302000D01*
D11*
D12*
X6840000Y-4077500D02*
X6915000Y-4152500D01*
X6915000Y-4077500D02*
X6840000Y-4152500D01*
X7040000Y-4077500D02*
X7115000Y-4152500D01*
X7115000Y-4077500D02*
X7040000Y-4152500D01*
X7963500Y-4065000D02*
X8038500Y-4140000D01*
X8038500Y-4065000D02*
X7963500Y-4140000D01*
X8163500Y-4065000D02*
X8238500Y-4140000D01*
X8238500Y-4065000D02*
X8163500Y-4140000D01*
X9037500Y-4060000D02*
X9112500Y-4135000D01*
X9112500Y-4060000D02*
X9037500Y-4135000D01*
X9237500Y-4060000D02*
X9312500Y-4135000D01*
X9312500Y-4060000D02*
X9237500Y-4135000D01*
D13*
X6896000Y-4667000D02*
G75*
G03*
X6896000Y-4667000I-40000J0D01*
G01*
X7912000Y-4667000D02*
G75*
G03*
X7912000Y-4667000I-40000J0D01*
G01*
X8420000Y-4667000D02*
G75*
G03*
X8420000Y-4667000I-40000J0D01*
G01*
X9436000Y-4667000D02*
G75*
G03*
X9436000Y-4667000I-40000J0D01*
G01*
D10*
X6348000Y-5125000D02*
X6348000Y-5225000D01*
X6298000Y-5175000D02*
X6398000Y-5175000D01*
X6349500Y-5939500D02*
X6349500Y-6039500D01*
X6299500Y-5989500D02*
X6399500Y-5989500D01*
X6349500Y-6193500D02*
X6349500Y-6293500D01*
X6299500Y-6243500D02*
X6399500Y-6243500D01*
X6349500Y-6447500D02*
X6349500Y-6547500D01*
X6299500Y-6497500D02*
X6399500Y-6497500D01*
X6349500Y-6701500D02*
X6349500Y-6801500D01*
X6299500Y-6751500D02*
X6399500Y-6751500D01*
X6349500Y-8225500D02*
X6349500Y-8325500D01*
X6299500Y-8275500D02*
X6399500Y-8275500D01*
X6349500Y-8479500D02*
X6349500Y-8579500D01*
X6299500Y-8529500D02*
X6399500Y-8529500D01*
X6349500Y-8733500D02*
X6349500Y-8833500D01*
X6299500Y-8783500D02*
X6399500Y-8783500D01*
X6349500Y-8987500D02*
X6349500Y-9087500D01*
X6299500Y-9037500D02*
X6399500Y-9037500D01*
X6352500Y-7212500D02*
X6352500Y-7312500D01*
X6302500Y-7262500D02*
X6402500Y-7262500D01*
X6352500Y-7466500D02*
X6352500Y-7566500D01*
X6302500Y-7516500D02*
X6402500Y-7516500D01*
X6352500Y-7720500D02*
X6352500Y-7820500D01*
X6302500Y-7770500D02*
X6402500Y-7770500D01*
X6602000Y-5125000D02*
X6602000Y-5225000D01*
X6552000Y-5175000D02*
X6652000Y-5175000D01*
X6856000Y-5125000D02*
X6856000Y-5225000D01*
X6806000Y-5175000D02*
X6906000Y-5175000D01*
X6857500Y-5939500D02*
X6857500Y-6039500D01*
X6807500Y-5989500D02*
X6907500Y-5989500D01*
X6857500Y-6193500D02*
X6857500Y-6293500D01*
X6807500Y-6243500D02*
X6907500Y-6243500D01*
X6857500Y-6447500D02*
X6857500Y-6547500D01*
X6807500Y-6497500D02*
X6907500Y-6497500D01*
X6857500Y-6701500D02*
X6857500Y-6801500D01*
X6807500Y-6751500D02*
X6907500Y-6751500D01*
X6857500Y-6955500D02*
X6857500Y-7055500D01*
X6807500Y-7005500D02*
X6907500Y-7005500D01*
X6857500Y-7209500D02*
X6857500Y-7309500D01*
X6807500Y-7259500D02*
X6907500Y-7259500D01*
X6857500Y-7463500D02*
X6857500Y-7563500D01*
X6807500Y-7513500D02*
X6907500Y-7513500D01*
X6857500Y-7717500D02*
X6857500Y-7817500D01*
X6807500Y-7767500D02*
X6907500Y-7767500D01*
X6857500Y-7971500D02*
X6857500Y-8071500D01*
X6807500Y-8021500D02*
X6907500Y-8021500D01*
X6857500Y-8225500D02*
X6857500Y-8325500D01*
X6807500Y-8275500D02*
X6907500Y-8275500D01*
X6857500Y-8479500D02*
X6857500Y-8579500D01*
X6807500Y-8529500D02*
X6907500Y-8529500D01*
X6857500Y-8733500D02*
X6857500Y-8833500D01*
X6807500Y-8783500D02*
X6907500Y-8783500D01*
X6857500Y-8987500D02*
X6857500Y-9087500D01*
X6807500Y-9037500D02*
X6907500Y-9037500D01*
X6857500Y-9241500D02*
X6857500Y-9341500D01*
X6807500Y-9291500D02*
X6907500Y-9291500D01*
X7742000Y-5125000D02*
X7742000Y-5225000D01*
X7692000Y-5175000D02*
X7792000Y-5175000D01*
X7996000Y-5125000D02*
X7996000Y-5225000D01*
X7946000Y-5175000D02*
X8046000Y-5175000D01*
X8250000Y-5125000D02*
X8250000Y-5225000D01*
X8200000Y-5175000D02*
X8300000Y-5175000D01*
X8992000Y-5125000D02*
X8992000Y-5225000D01*
X8942000Y-5175000D02*
X9042000Y-5175000D01*
X9143500Y-5939500D02*
X9143500Y-6039500D01*
X9093500Y-5989500D02*
X9193500Y-5989500D01*
X9143500Y-6193500D02*
X9143500Y-6293500D01*
X9093500Y-6243500D02*
X9193500Y-6243500D01*
X9143500Y-6447500D02*
X9143500Y-6547500D01*
X9093500Y-6497500D02*
X9193500Y-6497500D01*
X9143500Y-6701500D02*
X9143500Y-6801500D01*
X9093500Y-6751500D02*
X9193500Y-6751500D01*
X9143500Y-6955500D02*
X9143500Y-7055500D01*
X9093500Y-7005500D02*
X9193500Y-7005500D01*
X9143500Y-7209500D02*
X9143500Y-7309500D01*
X9093500Y-7259500D02*
X9193500Y-7259500D01*
X9143500Y-7463500D02*
X9143500Y-7563500D01*
X9093500Y-7513500D02*
X9193500Y-7513500D01*
X9143500Y-7717500D02*
X9143500Y-7817500D01*
X9093500Y-7767500D02*
X9193500Y-7767500D01*
X9143500Y-7971500D02*
X9143500Y-8071500D01*
X9093500Y-8021500D02*
X9193500Y-8021500D01*
X9143500Y-8225500D02*
X9143500Y-8325500D01*
X9093500Y-8275500D02*
X9193500Y-8275500D01*
X9143500Y-8479500D02*
X9143500Y-8579500D01*
X9093500Y-8529500D02*
X9193500Y-8529500D01*
X9143500Y-8733500D02*
X9143500Y-8833500D01*
X9093500Y-8783500D02*
X9193500Y-8783500D01*
X9143500Y-8987500D02*
X9143500Y-9087500D01*
X9093500Y-9037500D02*
X9193500Y-9037500D01*
X9143500Y-9241500D02*
X9143500Y-9341500D01*
X9093500Y-9291500D02*
X9193500Y-9291500D01*
X9143500Y-9495500D02*
X9143500Y-9595500D01*
X9093500Y-9545500D02*
X9193500Y-9545500D01*
X9143500Y-9749500D02*
X9143500Y-9849500D01*
X9093500Y-9799500D02*
X9193500Y-9799500D01*
X9143500Y-10003500D02*
X9143500Y-10103500D01*
X9093500Y-10053500D02*
X9193500Y-10053500D01*
X9143500Y-10257500D02*
X9143500Y-10357500D01*
X9093500Y-10307500D02*
X9193500Y-10307500D01*
X9246000Y-5125000D02*
X9246000Y-5225000D01*
X9196000Y-5175000D02*
X9296000Y-5175000D01*
X9500000Y-5125000D02*
X9500000Y-5225000D01*
X9450000Y-5175000D02*
X9550000Y-5175000D01*
X9650000Y-9200000D02*
X9650000Y-9300000D01*
X9600000Y-9250000D02*
X9700000Y-9250000D01*
X9650000Y-9454000D02*
X9650000Y-9554000D01*
X9600000Y-9504000D02*
X9700000Y-9504000D01*
X9650000Y-9708000D02*
X9650000Y-9808000D01*
X9600000Y-9758000D02*
X9700000Y-9758000D01*
X9651500Y-5939500D02*
X9651500Y-6039500D01*
X9601500Y-5989500D02*
X9701500Y-5989500D01*
X9651500Y-6193500D02*
X9651500Y-6293500D01*
X9601500Y-6243500D02*
X9701500Y-6243500D01*
X9651500Y-6447500D02*
X9651500Y-6547500D01*
X9601500Y-6497500D02*
X9701500Y-6497500D01*
X9651500Y-6701500D02*
X9651500Y-6801500D01*
X9601500Y-6751500D02*
X9701500Y-6751500D01*
X9651500Y-6955500D02*
X9651500Y-7055500D01*
X9601500Y-7005500D02*
X9701500Y-7005500D01*
X9651500Y-7717500D02*
X9651500Y-7817500D01*
X9601500Y-7767500D02*
X9701500Y-7767500D01*
X9651500Y-7971500D02*
X9651500Y-8071500D01*
X9601500Y-8021500D02*
X9701500Y-8021500D01*
X9651500Y-8225500D02*
X9651500Y-8325500D01*
X9601500Y-8275500D02*
X9701500Y-8275500D01*
X9651500Y-8479500D02*
X9651500Y-8579500D01*
X9601500Y-8529500D02*
X9701500Y-8529500D01*
D11*
X6094619Y-11187976D02*
X6094619Y-10987976D01*
X6142238Y-10987976D01*
X6170809Y-10997500D01*
X6189857Y-11016548D01*
X6199381Y-11035595D01*
X6208905Y-11073690D01*
X6208905Y-11102262D01*
X6199381Y-11140357D01*
X6189857Y-11159405D01*
X6170809Y-11178452D01*
X6142238Y-11187976D01*
X6094619Y-11187976D01*
X6294619Y-11187976D02*
X6294619Y-11054643D01*
X6294619Y-11092738D02*
X6304143Y-11073690D01*
X6313667Y-11064167D01*
X6332714Y-11054643D01*
X6351762Y-11054643D01*
X6418428Y-11187976D02*
X6418428Y-11054643D01*
X6418428Y-10987976D02*
X6408905Y-10997500D01*
X6418428Y-11007024D01*
X6427952Y-10997500D01*
X6418428Y-10987976D01*
X6418428Y-11007024D01*
X6542238Y-11187976D02*
X6523190Y-11178452D01*
X6513667Y-11159405D01*
X6513667Y-10987976D01*
X6647000Y-11187976D02*
X6627952Y-11178452D01*
X6618428Y-11159405D01*
X6618428Y-10987976D01*
X6875571Y-11187976D02*
X6875571Y-10987976D01*
X6942238Y-11130833D01*
X7008905Y-10987976D01*
X7008905Y-11187976D01*
X7189857Y-11187976D02*
X7189857Y-11083214D01*
X7180333Y-11064167D01*
X7161286Y-11054643D01*
X7123190Y-11054643D01*
X7104143Y-11064167D01*
X7189857Y-11178452D02*
X7170809Y-11187976D01*
X7123190Y-11187976D01*
X7104143Y-11178452D01*
X7094619Y-11159405D01*
X7094619Y-11140357D01*
X7104143Y-11121310D01*
X7123190Y-11111786D01*
X7170809Y-11111786D01*
X7189857Y-11102262D01*
X7285095Y-11054643D02*
X7285095Y-11254643D01*
X7285095Y-11064167D02*
X7304143Y-11054643D01*
X7342238Y-11054643D01*
X7361286Y-11064167D01*
X7370809Y-11073690D01*
X7380333Y-11092738D01*
X7380333Y-11149881D01*
X7370809Y-11168929D01*
X7361286Y-11178452D01*
X7342238Y-11187976D01*
X7304143Y-11187976D01*
X7285095Y-11178452D01*
X7466048Y-11168929D02*
X7475571Y-11178452D01*
X7466048Y-11187976D01*
X7456524Y-11178452D01*
X7466048Y-11168929D01*
X7466048Y-11187976D01*
X7466048Y-11064167D02*
X7475571Y-11073690D01*
X7466048Y-11083214D01*
X7456524Y-11073690D01*
X7466048Y-11064167D01*
X7466048Y-11083214D01*
D12*
X5762000Y-11480000D02*
X5837000Y-11555000D01*
X5837000Y-11480000D02*
X5762000Y-11555000D01*
D11*
X6132714Y-11407976D02*
X6151762Y-11407976D01*
X6170809Y-11417500D01*
X6180333Y-11427024D01*
X6189857Y-11446071D01*
X6199381Y-11484167D01*
X6199381Y-11531786D01*
X6189857Y-11569881D01*
X6180333Y-11588928D01*
X6170809Y-11598452D01*
X6151762Y-11607976D01*
X6132714Y-11607976D01*
X6113667Y-11598452D01*
X6104143Y-11588928D01*
X6094619Y-11569881D01*
X6085095Y-11531786D01*
X6085095Y-11484167D01*
X6094619Y-11446071D01*
X6104143Y-11427024D01*
X6113667Y-11417500D01*
X6132714Y-11407976D01*
X6285095Y-11588928D02*
X6294619Y-11598452D01*
X6285095Y-11607976D01*
X6275571Y-11598452D01*
X6285095Y-11588928D01*
X6285095Y-11607976D01*
X6361286Y-11407976D02*
X6494619Y-11407976D01*
X6408905Y-11607976D01*
X6666048Y-11407976D02*
X6570809Y-11407976D01*
X6561286Y-11503214D01*
X6570809Y-11493690D01*
X6589857Y-11484167D01*
X6637476Y-11484167D01*
X6656524Y-11493690D01*
X6666048Y-11503214D01*
X6675571Y-11522262D01*
X6675571Y-11569881D01*
X6666048Y-11588928D01*
X6656524Y-11598452D01*
X6637476Y-11607976D01*
X6589857Y-11607976D01*
X6570809Y-11598452D01*
X6561286Y-11588928D01*
X6799381Y-11407976D02*
X6818428Y-11407976D01*
X6837476Y-11417500D01*
X6847000Y-11427024D01*
X6856524Y-11446071D01*
X6866048Y-11484167D01*
X6866048Y-11531786D01*
X6856524Y-11569881D01*
X6847000Y-11588928D01*
X6837476Y-11598452D01*
X6818428Y-11607976D01*
X6799381Y-11607976D01*
X6780333Y-11598452D01*
X6770809Y-11588928D01*
X6761286Y-11569881D01*
X6751762Y-11531786D01*
X6751762Y-11484167D01*
X6761286Y-11446071D01*
X6770809Y-11427024D01*
X6780333Y-11417500D01*
X6799381Y-11407976D01*
X6951762Y-11607976D02*
X6951762Y-11474643D01*
X6951762Y-11493690D02*
X6961286Y-11484167D01*
X6980333Y-11474643D01*
X7008905Y-11474643D01*
X7027952Y-11484167D01*
X7037476Y-11503214D01*
X7037476Y-11607976D01*
X7037476Y-11503214D02*
X7047000Y-11484167D01*
X7066048Y-11474643D01*
X7094619Y-11474643D01*
X7113667Y-11484167D01*
X7123190Y-11503214D01*
X7123190Y-11607976D01*
X7218428Y-11607976D02*
X7218428Y-11474643D01*
X7218428Y-11493690D02*
X7227952Y-11484167D01*
X7247000Y-11474643D01*
X7275571Y-11474643D01*
X7294619Y-11484167D01*
X7304143Y-11503214D01*
X7304143Y-11607976D01*
X7304143Y-11503214D02*
X7313667Y-11484167D01*
X7332714Y-11474643D01*
X7361286Y-11474643D01*
X7380333Y-11484167D01*
X7389857Y-11503214D01*
X7389857Y-11607976D01*
X7780333Y-11398452D02*
X7608905Y-11655595D01*
X8037476Y-11407976D02*
X8056524Y-11407976D01*
X8075571Y-11417500D01*
X8085095Y-11427024D01*
X8094619Y-11446071D01*
X8104143Y-11484167D01*
X8104143Y-11531786D01*
X8094619Y-11569881D01*
X8085095Y-11588928D01*
X8075571Y-11598452D01*
X8056524Y-11607976D01*
X8037476Y-11607976D01*
X8018428Y-11598452D01*
X8008905Y-11588928D01*
X7999381Y-11569881D01*
X7989857Y-11531786D01*
X7989857Y-11484167D01*
X7999381Y-11446071D01*
X8008905Y-11427024D01*
X8018428Y-11417500D01*
X8037476Y-11407976D01*
X8189857Y-11588928D02*
X8199381Y-11598452D01*
X8189857Y-11607976D01*
X8180333Y-11598452D01*
X8189857Y-11588928D01*
X8189857Y-11607976D01*
X8323190Y-11407976D02*
X8342238Y-11407976D01*
X8361286Y-11417500D01*
X8370809Y-11427024D01*
X8380333Y-11446071D01*
X8389857Y-11484167D01*
X8389857Y-11531786D01*
X8380333Y-11569881D01*
X8370809Y-11588928D01*
X8361286Y-11598452D01*
X8342238Y-11607976D01*
X8323190Y-11607976D01*
X8304143Y-11598452D01*
X8294619Y-11588928D01*
X8285095Y-11569881D01*
X8275571Y-11531786D01*
X8275571Y-11484167D01*
X8285095Y-11446071D01*
X8294619Y-11427024D01*
X8304143Y-11417500D01*
X8323190Y-11407976D01*
X8466048Y-11427024D02*
X8475571Y-11417500D01*
X8494619Y-11407976D01*
X8542238Y-11407976D01*
X8561286Y-11417500D01*
X8570810Y-11427024D01*
X8580333Y-11446071D01*
X8580333Y-11465119D01*
X8570810Y-11493690D01*
X8456524Y-11607976D01*
X8580333Y-11607976D01*
X8675571Y-11607976D02*
X8713667Y-11607976D01*
X8732714Y-11598452D01*
X8742238Y-11588928D01*
X8761286Y-11560357D01*
X8770810Y-11522262D01*
X8770810Y-11446071D01*
X8761286Y-11427024D01*
X8751762Y-11417500D01*
X8732714Y-11407976D01*
X8694619Y-11407976D01*
X8675571Y-11417500D01*
X8666048Y-11427024D01*
X8656524Y-11446071D01*
X8656524Y-11493690D01*
X8666048Y-11512738D01*
X8675571Y-11522262D01*
X8694619Y-11531786D01*
X8732714Y-11531786D01*
X8751762Y-11522262D01*
X8761286Y-11512738D01*
X8770810Y-11493690D01*
X8951762Y-11407976D02*
X8856524Y-11407976D01*
X8847000Y-11503214D01*
X8856524Y-11493690D01*
X8875571Y-11484167D01*
X8923190Y-11484167D01*
X8942238Y-11493690D01*
X8951762Y-11503214D01*
X8961286Y-11522262D01*
X8961286Y-11569881D01*
X8951762Y-11588928D01*
X8942238Y-11598452D01*
X8923190Y-11607976D01*
X8875571Y-11607976D01*
X8856524Y-11598452D01*
X8847000Y-11588928D01*
X9037476Y-11407976D02*
X9037476Y-11446071D01*
X9113667Y-11407976D02*
X9113667Y-11446071D01*
X9408905Y-11684167D02*
X9399381Y-11674643D01*
X9380333Y-11646071D01*
X9370810Y-11627024D01*
X9361286Y-11598452D01*
X9351762Y-11550833D01*
X9351762Y-11512738D01*
X9361286Y-11465119D01*
X9370810Y-11436548D01*
X9380333Y-11417500D01*
X9399381Y-11388928D01*
X9408905Y-11379405D01*
X9570810Y-11407976D02*
X9532714Y-11407976D01*
X9513667Y-11417500D01*
X9504143Y-11427024D01*
X9485095Y-11455595D01*
X9475571Y-11493690D01*
X9475571Y-11569881D01*
X9485095Y-11588928D01*
X9494619Y-11598452D01*
X9513667Y-11607976D01*
X9551762Y-11607976D01*
X9570810Y-11598452D01*
X9580333Y-11588928D01*
X9589857Y-11569881D01*
X9589857Y-11522262D01*
X9580333Y-11503214D01*
X9570810Y-11493690D01*
X9551762Y-11484167D01*
X9513667Y-11484167D01*
X9494619Y-11493690D01*
X9485095Y-11503214D01*
X9475571Y-11522262D01*
X9827952Y-11607976D02*
X9827952Y-11407976D01*
X9913667Y-11607976D02*
X9913667Y-11503214D01*
X9904143Y-11484167D01*
X9885095Y-11474643D01*
X9856524Y-11474643D01*
X9837476Y-11484167D01*
X9827952Y-11493690D01*
X10037476Y-11607976D02*
X10018429Y-11598452D01*
X10008905Y-11588928D01*
X9999381Y-11569881D01*
X9999381Y-11512738D01*
X10008905Y-11493690D01*
X10018429Y-11484167D01*
X10037476Y-11474643D01*
X10066048Y-11474643D01*
X10085095Y-11484167D01*
X10094619Y-11493690D01*
X10104143Y-11512738D01*
X10104143Y-11569881D01*
X10094619Y-11588928D01*
X10085095Y-11598452D01*
X10066048Y-11607976D01*
X10037476Y-11607976D01*
X10218429Y-11607976D02*
X10199381Y-11598452D01*
X10189857Y-11579405D01*
X10189857Y-11407976D01*
X10370810Y-11598452D02*
X10351762Y-11607976D01*
X10313667Y-11607976D01*
X10294619Y-11598452D01*
X10285095Y-11579405D01*
X10285095Y-11503214D01*
X10294619Y-11484167D01*
X10313667Y-11474643D01*
X10351762Y-11474643D01*
X10370810Y-11484167D01*
X10380333Y-11503214D01*
X10380333Y-11522262D01*
X10285095Y-11541309D01*
X10456524Y-11598452D02*
X10475571Y-11607976D01*
X10513667Y-11607976D01*
X10532714Y-11598452D01*
X10542238Y-11579405D01*
X10542238Y-11569881D01*
X10532714Y-11550833D01*
X10513667Y-11541309D01*
X10485095Y-11541309D01*
X10466048Y-11531786D01*
X10456524Y-11512738D01*
X10456524Y-11503214D01*
X10466048Y-11484167D01*
X10485095Y-11474643D01*
X10513667Y-11474643D01*
X10532714Y-11484167D01*
X10608905Y-11684167D02*
X10618429Y-11674643D01*
X10637476Y-11646071D01*
X10647000Y-11627024D01*
X10656524Y-11598452D01*
X10666048Y-11550833D01*
X10666048Y-11512738D01*
X10656524Y-11465119D01*
X10647000Y-11436548D01*
X10637476Y-11417500D01*
X10618429Y-11388928D01*
X10608905Y-11379405D01*
D13*
X5837000Y-11781500D02*
G75*
G03*
X5837000Y-11781500I-40000J0D01*
G01*
D11*
X6132714Y-11671976D02*
X6151762Y-11671976D01*
X6170809Y-11681500D01*
X6180333Y-11691024D01*
X6189857Y-11710071D01*
X6199381Y-11748167D01*
X6199381Y-11795786D01*
X6189857Y-11833881D01*
X6180333Y-11852928D01*
X6170809Y-11862452D01*
X6151762Y-11871976D01*
X6132714Y-11871976D01*
X6113667Y-11862452D01*
X6104143Y-11852928D01*
X6094619Y-11833881D01*
X6085095Y-11795786D01*
X6085095Y-11748167D01*
X6094619Y-11710071D01*
X6104143Y-11691024D01*
X6113667Y-11681500D01*
X6132714Y-11671976D01*
X6285095Y-11852928D02*
X6294619Y-11862452D01*
X6285095Y-11871976D01*
X6275571Y-11862452D01*
X6285095Y-11852928D01*
X6285095Y-11871976D01*
X6408905Y-11757690D02*
X6389857Y-11748167D01*
X6380333Y-11738643D01*
X6370809Y-11719595D01*
X6370809Y-11710071D01*
X6380333Y-11691024D01*
X6389857Y-11681500D01*
X6408905Y-11671976D01*
X6447000Y-11671976D01*
X6466048Y-11681500D01*
X6475571Y-11691024D01*
X6485095Y-11710071D01*
X6485095Y-11719595D01*
X6475571Y-11738643D01*
X6466048Y-11748167D01*
X6447000Y-11757690D01*
X6408905Y-11757690D01*
X6389857Y-11767214D01*
X6380333Y-11776738D01*
X6370809Y-11795786D01*
X6370809Y-11833881D01*
X6380333Y-11852928D01*
X6389857Y-11862452D01*
X6408905Y-11871976D01*
X6447000Y-11871976D01*
X6466048Y-11862452D01*
X6475571Y-11852928D01*
X6485095Y-11833881D01*
X6485095Y-11795786D01*
X6475571Y-11776738D01*
X6466048Y-11767214D01*
X6447000Y-11757690D01*
X6608905Y-11671976D02*
X6627952Y-11671976D01*
X6647000Y-11681500D01*
X6656524Y-11691024D01*
X6666048Y-11710071D01*
X6675571Y-11748167D01*
X6675571Y-11795786D01*
X6666048Y-11833881D01*
X6656524Y-11852928D01*
X6647000Y-11862452D01*
X6627952Y-11871976D01*
X6608905Y-11871976D01*
X6589857Y-11862452D01*
X6580333Y-11852928D01*
X6570809Y-11833881D01*
X6561286Y-11795786D01*
X6561286Y-11748167D01*
X6570809Y-11710071D01*
X6580333Y-11691024D01*
X6589857Y-11681500D01*
X6608905Y-11671976D01*
X6799381Y-11671976D02*
X6818428Y-11671976D01*
X6837476Y-11681500D01*
X6847000Y-11691024D01*
X6856524Y-11710071D01*
X6866048Y-11748167D01*
X6866048Y-11795786D01*
X6856524Y-11833881D01*
X6847000Y-11852928D01*
X6837476Y-11862452D01*
X6818428Y-11871976D01*
X6799381Y-11871976D01*
X6780333Y-11862452D01*
X6770809Y-11852928D01*
X6761286Y-11833881D01*
X6751762Y-11795786D01*
X6751762Y-11748167D01*
X6761286Y-11710071D01*
X6770809Y-11691024D01*
X6780333Y-11681500D01*
X6799381Y-11671976D01*
X6951762Y-11871976D02*
X6951762Y-11738643D01*
X6951762Y-11757690D02*
X6961286Y-11748167D01*
X6980333Y-11738643D01*
X7008905Y-11738643D01*
X7027952Y-11748167D01*
X7037476Y-11767214D01*
X7037476Y-11871976D01*
X7037476Y-11767214D02*
X7047000Y-11748167D01*
X7066048Y-11738643D01*
X7094619Y-11738643D01*
X7113667Y-11748167D01*
X7123190Y-11767214D01*
X7123190Y-11871976D01*
X7218428Y-11871976D02*
X7218428Y-11738643D01*
X7218428Y-11757690D02*
X7227952Y-11748167D01*
X7247000Y-11738643D01*
X7275571Y-11738643D01*
X7294619Y-11748167D01*
X7304143Y-11767214D01*
X7304143Y-11871976D01*
X7304143Y-11767214D02*
X7313667Y-11748167D01*
X7332714Y-11738643D01*
X7361286Y-11738643D01*
X7380333Y-11748167D01*
X7389857Y-11767214D01*
X7389857Y-11871976D01*
X7780333Y-11662452D02*
X7608905Y-11919595D01*
X8037476Y-11671976D02*
X8056524Y-11671976D01*
X8075571Y-11681500D01*
X8085095Y-11691024D01*
X8094619Y-11710071D01*
X8104143Y-11748167D01*
X8104143Y-11795786D01*
X8094619Y-11833881D01*
X8085095Y-11852928D01*
X8075571Y-11862452D01*
X8056524Y-11871976D01*
X8037476Y-11871976D01*
X8018428Y-11862452D01*
X8008905Y-11852928D01*
X7999381Y-11833881D01*
X7989857Y-11795786D01*
X7989857Y-11748167D01*
X7999381Y-11710071D01*
X8008905Y-11691024D01*
X8018428Y-11681500D01*
X8037476Y-11671976D01*
X8189857Y-11852928D02*
X8199381Y-11862452D01*
X8189857Y-11871976D01*
X8180333Y-11862452D01*
X8189857Y-11852928D01*
X8189857Y-11871976D01*
X8323190Y-11671976D02*
X8342238Y-11671976D01*
X8361286Y-11681500D01*
X8370809Y-11691024D01*
X8380333Y-11710071D01*
X8389857Y-11748167D01*
X8389857Y-11795786D01*
X8380333Y-11833881D01*
X8370809Y-11852928D01*
X8361286Y-11862452D01*
X8342238Y-11871976D01*
X8323190Y-11871976D01*
X8304143Y-11862452D01*
X8294619Y-11852928D01*
X8285095Y-11833881D01*
X8275571Y-11795786D01*
X8275571Y-11748167D01*
X8285095Y-11710071D01*
X8294619Y-11691024D01*
X8304143Y-11681500D01*
X8323190Y-11671976D01*
X8456524Y-11671976D02*
X8580333Y-11671976D01*
X8513667Y-11748167D01*
X8542238Y-11748167D01*
X8561286Y-11757690D01*
X8570810Y-11767214D01*
X8580333Y-11786262D01*
X8580333Y-11833881D01*
X8570810Y-11852928D01*
X8561286Y-11862452D01*
X8542238Y-11871976D01*
X8485095Y-11871976D01*
X8466048Y-11862452D01*
X8456524Y-11852928D01*
X8770810Y-11871976D02*
X8656524Y-11871976D01*
X8713667Y-11871976D02*
X8713667Y-11671976D01*
X8694619Y-11700548D01*
X8675571Y-11719595D01*
X8656524Y-11729119D01*
X8951762Y-11671976D02*
X8856524Y-11671976D01*
X8847000Y-11767214D01*
X8856524Y-11757690D01*
X8875571Y-11748167D01*
X8923190Y-11748167D01*
X8942238Y-11757690D01*
X8951762Y-11767214D01*
X8961286Y-11786262D01*
X8961286Y-11833881D01*
X8951762Y-11852928D01*
X8942238Y-11862452D01*
X8923190Y-11871976D01*
X8875571Y-11871976D01*
X8856524Y-11862452D01*
X8847000Y-11852928D01*
X9037476Y-11671976D02*
X9037476Y-11710071D01*
X9113667Y-11671976D02*
X9113667Y-11710071D01*
X9408905Y-11948167D02*
X9399381Y-11938643D01*
X9380333Y-11910071D01*
X9370810Y-11891024D01*
X9361286Y-11862452D01*
X9351762Y-11814833D01*
X9351762Y-11776738D01*
X9361286Y-11729119D01*
X9370810Y-11700548D01*
X9380333Y-11681500D01*
X9399381Y-11652928D01*
X9408905Y-11643405D01*
X9570810Y-11738643D02*
X9570810Y-11871976D01*
X9523190Y-11662452D02*
X9475571Y-11805309D01*
X9599381Y-11805309D01*
X9827952Y-11871976D02*
X9827952Y-11671976D01*
X9913667Y-11871976D02*
X9913667Y-11767214D01*
X9904143Y-11748167D01*
X9885095Y-11738643D01*
X9856524Y-11738643D01*
X9837476Y-11748167D01*
X9827952Y-11757690D01*
X10037476Y-11871976D02*
X10018429Y-11862452D01*
X10008905Y-11852928D01*
X9999381Y-11833881D01*
X9999381Y-11776738D01*
X10008905Y-11757690D01*
X10018429Y-11748167D01*
X10037476Y-11738643D01*
X10066048Y-11738643D01*
X10085095Y-11748167D01*
X10094619Y-11757690D01*
X10104143Y-11776738D01*
X10104143Y-11833881D01*
X10094619Y-11852928D01*
X10085095Y-11862452D01*
X10066048Y-11871976D01*
X10037476Y-11871976D01*
X10218429Y-11871976D02*
X10199381Y-11862452D01*
X10189857Y-11843405D01*
X10189857Y-11671976D01*
X10370810Y-11862452D02*
X10351762Y-11871976D01*
X10313667Y-11871976D01*
X10294619Y-11862452D01*
X10285095Y-11843405D01*
X10285095Y-11767214D01*
X10294619Y-11748167D01*
X10313667Y-11738643D01*
X10351762Y-11738643D01*
X10370810Y-11748167D01*
X10380333Y-11767214D01*
X10380333Y-11786262D01*
X10285095Y-11805309D01*
X10456524Y-11862452D02*
X10475571Y-11871976D01*
X10513667Y-11871976D01*
X10532714Y-11862452D01*
X10542238Y-11843405D01*
X10542238Y-11833881D01*
X10532714Y-11814833D01*
X10513667Y-11805309D01*
X10485095Y-11805309D01*
X10466048Y-11795786D01*
X10456524Y-11776738D01*
X10456524Y-11767214D01*
X10466048Y-11748167D01*
X10485095Y-11738643D01*
X10513667Y-11738643D01*
X10532714Y-11748167D01*
X10608905Y-11948167D02*
X10618429Y-11938643D01*
X10637476Y-11910071D01*
X10647000Y-11891024D01*
X10656524Y-11862452D01*
X10666048Y-11814833D01*
X10666048Y-11776738D01*
X10656524Y-11729119D01*
X10647000Y-11700548D01*
X10637476Y-11681500D01*
X10618429Y-11652928D01*
X10608905Y-11643405D01*
D10*
X5787000Y-11995500D02*
X5787000Y-12095500D01*
X5737000Y-12045500D02*
X5837000Y-12045500D01*
D11*
X6199381Y-12135976D02*
X6085095Y-12135976D01*
X6142238Y-12135976D02*
X6142238Y-11935976D01*
X6123190Y-11964548D01*
X6104143Y-11983595D01*
X6085095Y-11993119D01*
X6285095Y-12116928D02*
X6294619Y-12126452D01*
X6285095Y-12135976D01*
X6275571Y-12126452D01*
X6285095Y-12116928D01*
X6285095Y-12135976D01*
X6418428Y-11935976D02*
X6437476Y-11935976D01*
X6456524Y-11945500D01*
X6466048Y-11955024D01*
X6475571Y-11974071D01*
X6485095Y-12012167D01*
X6485095Y-12059786D01*
X6475571Y-12097881D01*
X6466048Y-12116928D01*
X6456524Y-12126452D01*
X6437476Y-12135976D01*
X6418428Y-12135976D01*
X6399381Y-12126452D01*
X6389857Y-12116928D01*
X6380333Y-12097881D01*
X6370809Y-12059786D01*
X6370809Y-12012167D01*
X6380333Y-11974071D01*
X6389857Y-11955024D01*
X6399381Y-11945500D01*
X6418428Y-11935976D01*
X6608905Y-11935976D02*
X6627952Y-11935976D01*
X6647000Y-11945500D01*
X6656524Y-11955024D01*
X6666048Y-11974071D01*
X6675571Y-12012167D01*
X6675571Y-12059786D01*
X6666048Y-12097881D01*
X6656524Y-12116928D01*
X6647000Y-12126452D01*
X6627952Y-12135976D01*
X6608905Y-12135976D01*
X6589857Y-12126452D01*
X6580333Y-12116928D01*
X6570809Y-12097881D01*
X6561286Y-12059786D01*
X6561286Y-12012167D01*
X6570809Y-11974071D01*
X6580333Y-11955024D01*
X6589857Y-11945500D01*
X6608905Y-11935976D01*
X6799381Y-11935976D02*
X6818428Y-11935976D01*
X6837476Y-11945500D01*
X6847000Y-11955024D01*
X6856524Y-11974071D01*
X6866048Y-12012167D01*
X6866048Y-12059786D01*
X6856524Y-12097881D01*
X6847000Y-12116928D01*
X6837476Y-12126452D01*
X6818428Y-12135976D01*
X6799381Y-12135976D01*
X6780333Y-12126452D01*
X6770809Y-12116928D01*
X6761286Y-12097881D01*
X6751762Y-12059786D01*
X6751762Y-12012167D01*
X6761286Y-11974071D01*
X6770809Y-11955024D01*
X6780333Y-11945500D01*
X6799381Y-11935976D01*
X6951762Y-12135976D02*
X6951762Y-12002643D01*
X6951762Y-12021690D02*
X6961286Y-12012167D01*
X6980333Y-12002643D01*
X7008905Y-12002643D01*
X7027952Y-12012167D01*
X7037476Y-12031214D01*
X7037476Y-12135976D01*
X7037476Y-12031214D02*
X7047000Y-12012167D01*
X7066048Y-12002643D01*
X7094619Y-12002643D01*
X7113667Y-12012167D01*
X7123190Y-12031214D01*
X7123190Y-12135976D01*
X7218428Y-12135976D02*
X7218428Y-12002643D01*
X7218428Y-12021690D02*
X7227952Y-12012167D01*
X7247000Y-12002643D01*
X7275571Y-12002643D01*
X7294619Y-12012167D01*
X7304143Y-12031214D01*
X7304143Y-12135976D01*
X7304143Y-12031214D02*
X7313667Y-12012167D01*
X7332714Y-12002643D01*
X7361286Y-12002643D01*
X7380333Y-12012167D01*
X7389857Y-12031214D01*
X7389857Y-12135976D01*
X7780333Y-11926452D02*
X7608905Y-12183595D01*
X8037476Y-11935976D02*
X8056524Y-11935976D01*
X8075571Y-11945500D01*
X8085095Y-11955024D01*
X8094619Y-11974071D01*
X8104143Y-12012167D01*
X8104143Y-12059786D01*
X8094619Y-12097881D01*
X8085095Y-12116928D01*
X8075571Y-12126452D01*
X8056524Y-12135976D01*
X8037476Y-12135976D01*
X8018428Y-12126452D01*
X8008905Y-12116928D01*
X7999381Y-12097881D01*
X7989857Y-12059786D01*
X7989857Y-12012167D01*
X7999381Y-11974071D01*
X8008905Y-11955024D01*
X8018428Y-11945500D01*
X8037476Y-11935976D01*
X8189857Y-12116928D02*
X8199381Y-12126452D01*
X8189857Y-12135976D01*
X8180333Y-12126452D01*
X8189857Y-12116928D01*
X8189857Y-12135976D01*
X8323190Y-11935976D02*
X8342238Y-11935976D01*
X8361286Y-11945500D01*
X8370809Y-11955024D01*
X8380333Y-11974071D01*
X8389857Y-12012167D01*
X8389857Y-12059786D01*
X8380333Y-12097881D01*
X8370809Y-12116928D01*
X8361286Y-12126452D01*
X8342238Y-12135976D01*
X8323190Y-12135976D01*
X8304143Y-12126452D01*
X8294619Y-12116928D01*
X8285095Y-12097881D01*
X8275571Y-12059786D01*
X8275571Y-12012167D01*
X8285095Y-11974071D01*
X8294619Y-11955024D01*
X8304143Y-11945500D01*
X8323190Y-11935976D01*
X8456524Y-11935976D02*
X8580333Y-11935976D01*
X8513667Y-12012167D01*
X8542238Y-12012167D01*
X8561286Y-12021690D01*
X8570810Y-12031214D01*
X8580333Y-12050262D01*
X8580333Y-12097881D01*
X8570810Y-12116928D01*
X8561286Y-12126452D01*
X8542238Y-12135976D01*
X8485095Y-12135976D01*
X8466048Y-12126452D01*
X8456524Y-12116928D01*
X8675571Y-12135976D02*
X8713667Y-12135976D01*
X8732714Y-12126452D01*
X8742238Y-12116928D01*
X8761286Y-12088357D01*
X8770810Y-12050262D01*
X8770810Y-11974071D01*
X8761286Y-11955024D01*
X8751762Y-11945500D01*
X8732714Y-11935976D01*
X8694619Y-11935976D01*
X8675571Y-11945500D01*
X8666048Y-11955024D01*
X8656524Y-11974071D01*
X8656524Y-12021690D01*
X8666048Y-12040738D01*
X8675571Y-12050262D01*
X8694619Y-12059786D01*
X8732714Y-12059786D01*
X8751762Y-12050262D01*
X8761286Y-12040738D01*
X8770810Y-12021690D01*
X8942238Y-12002643D02*
X8942238Y-12135976D01*
X8894619Y-11926452D02*
X8847000Y-12069309D01*
X8970810Y-12069309D01*
X9037476Y-11935976D02*
X9037476Y-11974071D01*
X9113667Y-11935976D02*
X9113667Y-11974071D01*
X9408905Y-12212167D02*
X9399381Y-12202643D01*
X9380333Y-12174071D01*
X9370810Y-12155024D01*
X9361286Y-12126452D01*
X9351762Y-12078833D01*
X9351762Y-12040738D01*
X9361286Y-11993119D01*
X9370810Y-11964548D01*
X9380333Y-11945500D01*
X9399381Y-11916928D01*
X9408905Y-11907405D01*
X9570810Y-11935976D02*
X9532714Y-11935976D01*
X9513667Y-11945500D01*
X9504143Y-11955024D01*
X9485095Y-11983595D01*
X9475571Y-12021690D01*
X9475571Y-12097881D01*
X9485095Y-12116928D01*
X9494619Y-12126452D01*
X9513667Y-12135976D01*
X9551762Y-12135976D01*
X9570810Y-12126452D01*
X9580333Y-12116928D01*
X9589857Y-12097881D01*
X9589857Y-12050262D01*
X9580333Y-12031214D01*
X9570810Y-12021690D01*
X9551762Y-12012167D01*
X9513667Y-12012167D01*
X9494619Y-12021690D01*
X9485095Y-12031214D01*
X9475571Y-12050262D01*
X9761286Y-12002643D02*
X9761286Y-12135976D01*
X9713667Y-11926452D02*
X9666048Y-12069309D01*
X9789857Y-12069309D01*
X10018429Y-12135976D02*
X10018429Y-11935976D01*
X10104143Y-12135976D02*
X10104143Y-12031214D01*
X10094619Y-12012167D01*
X10075571Y-12002643D01*
X10047000Y-12002643D01*
X10027952Y-12012167D01*
X10018429Y-12021690D01*
X10227952Y-12135976D02*
X10208905Y-12126452D01*
X10199381Y-12116928D01*
X10189857Y-12097881D01*
X10189857Y-12040738D01*
X10199381Y-12021690D01*
X10208905Y-12012167D01*
X10227952Y-12002643D01*
X10256524Y-12002643D01*
X10275571Y-12012167D01*
X10285095Y-12021690D01*
X10294619Y-12040738D01*
X10294619Y-12097881D01*
X10285095Y-12116928D01*
X10275571Y-12126452D01*
X10256524Y-12135976D01*
X10227952Y-12135976D01*
X10408905Y-12135976D02*
X10389857Y-12126452D01*
X10380333Y-12107405D01*
X10380333Y-11935976D01*
X10561286Y-12126452D02*
X10542238Y-12135976D01*
X10504143Y-12135976D01*
X10485095Y-12126452D01*
X10475571Y-12107405D01*
X10475571Y-12031214D01*
X10485095Y-12012167D01*
X10504143Y-12002643D01*
X10542238Y-12002643D01*
X10561286Y-12012167D01*
X10570810Y-12031214D01*
X10570810Y-12050262D01*
X10475571Y-12069309D01*
X10647000Y-12126452D02*
X10666048Y-12135976D01*
X10704143Y-12135976D01*
X10723190Y-12126452D01*
X10732714Y-12107405D01*
X10732714Y-12097881D01*
X10723190Y-12078833D01*
X10704143Y-12069309D01*
X10675571Y-12069309D01*
X10656524Y-12059786D01*
X10647000Y-12040738D01*
X10647000Y-12031214D01*
X10656524Y-12012167D01*
X10675571Y-12002643D01*
X10704143Y-12002643D01*
X10723190Y-12012167D01*
X10799381Y-12212167D02*
X10808905Y-12202643D01*
X10827952Y-12174071D01*
X10837476Y-12155024D01*
X10847000Y-12126452D01*
X10856524Y-12078833D01*
X10856524Y-12040738D01*
X10847000Y-11993119D01*
X10837476Y-11964548D01*
X10827952Y-11945500D01*
X10808905Y-11916928D01*
X10799381Y-11907405D01*
M02*
