%TF.GenerationSoftware,KiCad,Pcbnew,6.0.7-f9a2dced07~116~ubuntu20.04.1*%
%TF.CreationDate,2022-07-30T18:15:20+02:00*%
%TF.ProjectId,fatrug,66617472-7567-42e6-9b69-6361645f7063,rev?*%
%TF.SameCoordinates,Original*%
%TF.FileFunction,Copper,L1,Top*%
%TF.FilePolarity,Positive*%
%FSLAX46Y46*%
G04 Gerber Fmt 4.6, Leading zero omitted, Abs format (unit mm)*
G04 Created by KiCad (PCBNEW 6.0.7-f9a2dced07~116~ubuntu20.04.1) date 2022-07-30 18:15:20*
%MOMM*%
%LPD*%
G01*
G04 APERTURE LIST*
G04 Aperture macros list*
%AMRoundRect*
0 Rectangle with rounded corners*
0 $1 Rounding radius*
0 $2 $3 $4 $5 $6 $7 $8 $9 X,Y pos of 4 corners*
0 Add a 4 corners polygon primitive as box body*
4,1,4,$2,$3,$4,$5,$6,$7,$8,$9,$2,$3,0*
0 Add four circle primitives for the rounded corners*
1,1,$1+$1,$2,$3*
1,1,$1+$1,$4,$5*
1,1,$1+$1,$6,$7*
1,1,$1+$1,$8,$9*
0 Add four rect primitives between the rounded corners*
20,1,$1+$1,$2,$3,$4,$5,0*
20,1,$1+$1,$4,$5,$6,$7,0*
20,1,$1+$1,$6,$7,$8,$9,0*
20,1,$1+$1,$8,$9,$2,$3,0*%
G04 Aperture macros list end*
%TA.AperFunction,ComponentPad*%
%ADD10R,1.700000X1.700000*%
%TD*%
%TA.AperFunction,ComponentPad*%
%ADD11O,1.700000X1.700000*%
%TD*%
%TA.AperFunction,ComponentPad*%
%ADD12RoundRect,0.250000X0.350000X0.625000X-0.350000X0.625000X-0.350000X-0.625000X0.350000X-0.625000X0*%
%TD*%
%TA.AperFunction,ComponentPad*%
%ADD13O,1.200000X1.750000*%
%TD*%
%TA.AperFunction,ComponentPad*%
%ADD14C,1.600000*%
%TD*%
%TA.AperFunction,ComponentPad*%
%ADD15O,1.600000X1.600000*%
%TD*%
%TA.AperFunction,Conductor*%
%ADD16C,0.750000*%
%TD*%
%TA.AperFunction,Conductor*%
%ADD17C,1.000000*%
%TD*%
%TA.AperFunction,Conductor*%
%ADD18C,0.500000*%
%TD*%
G04 APERTURE END LIST*
D10*
%TO.P,J14,1,Pin_1*%
%TO.N,Net-(J5-Pad8)*%
X63525000Y-77705000D03*
D11*
%TO.P,J14,2,Pin_2*%
%TO.N,Net-(J5-Pad7)*%
X63525000Y-75165000D03*
%TO.P,J14,3,Pin_3*%
%TO.N,Net-(J5-Pad6)*%
X63525000Y-72625000D03*
%TD*%
D10*
%TO.P,J6,1,Pin_1*%
%TO.N,Net-(J11-Pad1)*%
X91435000Y-59895000D03*
D11*
%TO.P,J6,2,Pin_2*%
%TO.N,Net-(J11-Pad2)*%
X91435000Y-62435000D03*
%TO.P,J6,3,Pin_3*%
%TO.N,Net-(J11-Pad3)*%
X91435000Y-64975000D03*
%TO.P,J6,4,Pin_4*%
%TO.N,Net-(J11-Pad4)*%
X91435000Y-67515000D03*
%TO.P,J6,5,Pin_5*%
%TO.N,Net-(J11-Pad5)*%
X91435000Y-70055000D03*
%TO.P,J6,6,Pin_6*%
%TO.N,Net-(J6-Pad6)*%
X91435000Y-72595000D03*
%TO.P,J6,7,Pin_7*%
%TO.N,Net-(J6-Pad7)*%
X91435000Y-75135000D03*
%TO.P,J6,8,Pin_8*%
%TO.N,Net-(J6-Pad8)*%
X91435000Y-77675000D03*
%TO.P,J6,9,Pin_9*%
%TO.N,unconnected-(J6-Pad9)*%
X91435000Y-80215000D03*
%TO.P,J6,10,Pin_10*%
%TO.N,unconnected-(J6-Pad10)*%
X91435000Y-82755000D03*
%TO.P,J6,11,Pin_11*%
%TO.N,unconnected-(J6-Pad11)*%
X91435000Y-85295000D03*
%TO.P,J6,12,Pin_12*%
%TO.N,unconnected-(J6-Pad12)*%
X91435000Y-87835000D03*
%TO.P,J6,13,Pin_13*%
%TO.N,unconnected-(J6-Pad13)*%
X91435000Y-90375000D03*
%TO.P,J6,14,Pin_14*%
%TO.N,unconnected-(J6-Pad14)*%
X91435000Y-92915000D03*
%TO.P,J6,15,Pin_15*%
%TO.N,Net-(J12-Pad1)*%
X91435000Y-95455000D03*
%TO.P,J6,16,Pin_16*%
%TO.N,unconnected-(J6-Pad16)*%
X91435000Y-97995000D03*
%TO.P,J6,17,Pin_17*%
%TO.N,Net-(J7-Pad3)*%
X91435000Y-100535000D03*
%TO.P,J6,18,Pin_18*%
%TO.N,unconnected-(J6-Pad18)*%
X91435000Y-103075000D03*
%TD*%
D12*
%TO.P,J3,1,Pin_1*%
%TO.N,Net-(J10-Pad1)*%
X70775000Y-41150000D03*
D13*
%TO.P,J3,2,Pin_2*%
%TO.N,GND*%
X68775000Y-41150000D03*
%TD*%
D12*
%TO.P,J2,1,Pin_1*%
%TO.N,Net-(J10-Pad1)*%
X82010000Y-41025000D03*
D13*
%TO.P,J2,2,Pin_2*%
%TO.N,Net-(J1-Pad1)*%
X80010000Y-41025000D03*
%TD*%
D12*
%TO.P,J1,1,Pin_1*%
%TO.N,Net-(J1-Pad1)*%
X92750000Y-40975000D03*
D13*
%TO.P,J1,2,Pin_2*%
%TO.N,GND*%
X90750000Y-40975000D03*
%TD*%
D10*
%TO.P,J13,1,Pin_1*%
%TO.N,Net-(J7-Pad3)*%
X82500000Y-51750000D03*
D11*
%TO.P,J13,2,Pin_2*%
X79960000Y-51750000D03*
%TO.P,J13,3,Pin_3*%
X77420000Y-51750000D03*
%TD*%
D10*
%TO.P,J12,1,Pin_1*%
%TO.N,Net-(J12-Pad1)*%
X95000000Y-51750000D03*
D11*
%TO.P,J12,2,Pin_2*%
X92460000Y-51750000D03*
%TO.P,J12,3,Pin_3*%
X89920000Y-51750000D03*
%TD*%
D10*
%TO.P,J11,1,Pin_1*%
%TO.N,Net-(J11-Pad1)*%
X96515000Y-59895000D03*
D11*
%TO.P,J11,2,Pin_2*%
%TO.N,Net-(J11-Pad2)*%
X96515000Y-62435000D03*
%TO.P,J11,3,Pin_3*%
%TO.N,Net-(J11-Pad3)*%
X96515000Y-64975000D03*
%TO.P,J11,4,Pin_4*%
%TO.N,Net-(J11-Pad4)*%
X96515000Y-67515000D03*
%TO.P,J11,5,Pin_5*%
%TO.N,Net-(J11-Pad5)*%
X96515000Y-70055000D03*
%TD*%
%TO.P,J10,3,Pin_3*%
%TO.N,Net-(J10-Pad1)*%
X68560000Y-51750000D03*
%TO.P,J10,2,Pin_2*%
X66020000Y-51750000D03*
D10*
%TO.P,J10,1,Pin_1*%
X63480000Y-51750000D03*
%TD*%
%TO.P,J9,1,Pin_1*%
%TO.N,Net-(J5-Pad4)*%
X63495000Y-67515000D03*
D11*
%TO.P,J9,2,Pin_2*%
%TO.N,Net-(J5-Pad3)*%
X63495000Y-64975000D03*
%TO.P,J9,3,Pin_3*%
%TO.N,Net-(J5-Pad2)*%
X63495000Y-62435000D03*
%TO.P,J9,4,Pin_4*%
%TO.N,Net-(J5-Pad1)*%
X63495000Y-59895000D03*
%TD*%
D14*
%TO.P,R2,1*%
%TO.N,Net-(J5-Pad5)*%
X83800000Y-46670000D03*
D15*
%TO.P,R2,2*%
%TO.N,GND*%
X93960000Y-46670000D03*
%TD*%
%TO.P,R1,2*%
%TO.N,Net-(J5-Pad5)*%
X78720000Y-46670000D03*
D14*
%TO.P,R1,1*%
%TO.N,Net-(J10-Pad1)*%
X68560000Y-46670000D03*
%TD*%
D10*
%TO.P,J8,1,Pin_1*%
%TO.N,Net-(J6-Pad6)*%
X96515000Y-77675000D03*
D11*
%TO.P,J8,2,Pin_2*%
%TO.N,Net-(J6-Pad7)*%
X96515000Y-80215000D03*
%TO.P,J8,3,Pin_3*%
%TO.N,Net-(J12-Pad1)*%
X96515000Y-82755000D03*
%TO.P,J8,4,Pin_4*%
%TO.N,Net-(J7-Pad3)*%
X96515000Y-85295000D03*
%TD*%
%TO.P,J7,3,Pin_3*%
%TO.N,Net-(J7-Pad3)*%
X96500000Y-97580000D03*
%TO.P,J7,2,Pin_2*%
%TO.N,Net-(J12-Pad1)*%
X96500000Y-95040000D03*
D10*
%TO.P,J7,1,Pin_1*%
%TO.N,Net-(J6-Pad8)*%
X96500000Y-92500000D03*
%TD*%
%TO.P,J5,1,Pin_1*%
%TO.N,Net-(J5-Pad1)*%
X68575000Y-59895000D03*
D11*
%TO.P,J5,2,Pin_2*%
%TO.N,Net-(J5-Pad2)*%
X68575000Y-62435000D03*
%TO.P,J5,3,Pin_3*%
%TO.N,Net-(J5-Pad3)*%
X68575000Y-64975000D03*
%TO.P,J5,4,Pin_4*%
%TO.N,Net-(J5-Pad4)*%
X68575000Y-67515000D03*
%TO.P,J5,5,Pin_5*%
%TO.N,Net-(J5-Pad5)*%
X68575000Y-70055000D03*
%TO.P,J5,6,Pin_6*%
%TO.N,Net-(J5-Pad6)*%
X68575000Y-72595000D03*
%TO.P,J5,7,Pin_7*%
%TO.N,Net-(J5-Pad7)*%
X68575000Y-75135000D03*
%TO.P,J5,8,Pin_8*%
%TO.N,Net-(J5-Pad8)*%
X68575000Y-77675000D03*
%TO.P,J5,9,Pin_9*%
%TO.N,unconnected-(J5-Pad9)*%
X68575000Y-80215000D03*
%TO.P,J5,10,Pin_10*%
%TO.N,Net-(J4-Pad4)*%
X68575000Y-82755000D03*
%TO.P,J5,11,Pin_11*%
%TO.N,Net-(J4-Pad3)*%
X68575000Y-85295000D03*
%TO.P,J5,12,Pin_12*%
%TO.N,Net-(J4-Pad2)*%
X68575000Y-87835000D03*
%TO.P,J5,13,Pin_13*%
%TO.N,Net-(J4-Pad1)*%
X68575000Y-90375000D03*
%TO.P,J5,14,Pin_14*%
%TO.N,unconnected-(J5-Pad14)*%
X68575000Y-92915000D03*
%TD*%
D10*
%TO.P,J4,1,Pin_1*%
%TO.N,Net-(J4-Pad1)*%
X63495000Y-90375000D03*
D11*
%TO.P,J4,2,Pin_2*%
%TO.N,Net-(J4-Pad2)*%
X63495000Y-87835000D03*
%TO.P,J4,3,Pin_3*%
%TO.N,Net-(J4-Pad3)*%
X63495000Y-85295000D03*
%TO.P,J4,4,Pin_4*%
%TO.N,Net-(J4-Pad4)*%
X63495000Y-82755000D03*
%TD*%
D16*
%TO.N,Net-(J5-Pad8)*%
X63525000Y-77705000D02*
X68545000Y-77705000D01*
X68545000Y-77705000D02*
X68575000Y-77675000D01*
%TO.N,Net-(J5-Pad7)*%
X63525000Y-75165000D02*
X68545000Y-75165000D01*
X68545000Y-75165000D02*
X68575000Y-75135000D01*
%TO.N,Net-(J5-Pad6)*%
X63525000Y-72625000D02*
X68545000Y-72625000D01*
X68545000Y-72625000D02*
X68575000Y-72595000D01*
%TO.N,Net-(J12-Pad1)*%
X96515000Y-82755000D02*
X95090000Y-84180000D01*
X95090000Y-84180000D02*
X95090000Y-88240000D01*
X95090000Y-88240000D02*
X97990749Y-91140749D01*
X97990749Y-91140749D02*
X97990749Y-93549251D01*
X97990749Y-93549251D02*
X96500000Y-95040000D01*
D17*
X95000000Y-51750000D02*
X99150000Y-55900000D01*
X99150000Y-80120000D02*
X96515000Y-82755000D01*
X99150000Y-55900000D02*
X99150000Y-80120000D01*
D18*
%TO.N,Net-(J6-Pad7)*%
X91435000Y-75135000D02*
X94000000Y-77700000D01*
X94000000Y-77700000D02*
X94000000Y-79350000D01*
X94000000Y-79350000D02*
X94865000Y-80215000D01*
X94865000Y-80215000D02*
X96515000Y-80215000D01*
%TO.N,Net-(J6-Pad8)*%
X91435000Y-77675000D02*
X93109999Y-79349999D01*
X93109999Y-79349999D02*
X93109999Y-89109999D01*
X93109999Y-89109999D02*
X96500000Y-92500000D01*
%TO.N,Net-(J6-Pad6)*%
X91435000Y-72595000D02*
X93895000Y-72595000D01*
X93895000Y-72595000D02*
X96515000Y-75215000D01*
X96515000Y-75215000D02*
X96515000Y-77675000D01*
D17*
%TO.N,Net-(J12-Pad1)*%
X91435000Y-95455000D02*
X96085000Y-95455000D01*
X96085000Y-95455000D02*
X96500000Y-95040000D01*
D16*
%TO.N,Net-(J7-Pad3)*%
X91435000Y-100535000D02*
X95340000Y-100535000D01*
X95340000Y-100535000D02*
X96500000Y-99375000D01*
X96500000Y-99375000D02*
X96500000Y-97580000D01*
D17*
X82500000Y-51750000D02*
X82500000Y-97675000D01*
X85360000Y-100535000D02*
X91435000Y-100535000D01*
X82500000Y-97675000D02*
X85360000Y-100535000D01*
D16*
X99225000Y-88005000D02*
X99225000Y-96600000D01*
X96515000Y-85295000D02*
X99225000Y-88005000D01*
X99225000Y-96600000D02*
X98245000Y-97580000D01*
X98245000Y-97580000D02*
X96500000Y-97580000D01*
D17*
%TO.N,Net-(J12-Pad1)*%
X89920000Y-51750000D02*
X95000000Y-51750000D01*
%TO.N,Net-(J7-Pad3)*%
X82500000Y-51750000D02*
X77420000Y-51750000D01*
D16*
%TO.N,Net-(J5-Pad5)*%
X78720000Y-46670000D02*
X75830000Y-46670000D01*
X75830000Y-46670000D02*
X72500000Y-50000000D01*
X72500000Y-50000000D02*
X72500000Y-67500000D01*
X72500000Y-67500000D02*
X69945000Y-70055000D01*
X69945000Y-70055000D02*
X68575000Y-70055000D01*
%TO.N,Net-(J4-Pad1)*%
X63495000Y-90375000D02*
X68575000Y-90375000D01*
%TO.N,Net-(J4-Pad2)*%
X63495000Y-87835000D02*
X68575000Y-87835000D01*
%TO.N,Net-(J4-Pad3)*%
X63495000Y-85295000D02*
X68575000Y-85295000D01*
%TO.N,Net-(J4-Pad4)*%
X63495000Y-82755000D02*
X68575000Y-82755000D01*
%TO.N,Net-(J11-Pad5)*%
X91435000Y-70055000D02*
X96515000Y-70055000D01*
%TO.N,Net-(J11-Pad4)*%
X91435000Y-67515000D02*
X96515000Y-67515000D01*
%TO.N,Net-(J11-Pad3)*%
X91435000Y-64975000D02*
X96515000Y-64975000D01*
%TO.N,Net-(J11-Pad2)*%
X91435000Y-62435000D02*
X96515000Y-62435000D01*
%TO.N,Net-(J11-Pad1)*%
X91435000Y-59895000D02*
X96515000Y-59895000D01*
%TO.N,Net-(J5-Pad4)*%
X63495000Y-67515000D02*
X68575000Y-67515000D01*
%TO.N,Net-(J5-Pad3)*%
X63495000Y-64975000D02*
X68575000Y-64975000D01*
%TO.N,Net-(J5-Pad2)*%
X63495000Y-62435000D02*
X68575000Y-62435000D01*
%TO.N,Net-(J5-Pad1)*%
X63495000Y-59895000D02*
X68575000Y-59895000D01*
%TO.N,Net-(J5-Pad5)*%
X78720000Y-46670000D02*
X83800000Y-46670000D01*
D17*
%TO.N,Net-(J10-Pad1)*%
X68560000Y-46670000D02*
X70700000Y-44530000D01*
D16*
X70700000Y-41225000D02*
X70775000Y-41150000D01*
D17*
X70700000Y-44530000D02*
X70700000Y-41225000D01*
%TO.N,GND*%
X93960000Y-46670000D02*
X93960000Y-44840000D01*
X93960000Y-44840000D02*
X95100000Y-43700000D01*
X95100000Y-43700000D02*
X95100000Y-38150000D01*
X95100000Y-38150000D02*
X94575000Y-37625000D01*
X94575000Y-37625000D02*
X89800000Y-37625000D01*
%TO.N,Net-(J1-Pad1)*%
X92750000Y-40975000D02*
X92750000Y-42575000D01*
X92750000Y-42575000D02*
X91800000Y-43525000D01*
X80010000Y-42635000D02*
X80010000Y-41025000D01*
X91800000Y-43525000D02*
X80900000Y-43525000D01*
X80900000Y-43525000D02*
X80010000Y-42635000D01*
%TO.N,GND*%
X68775000Y-41150000D02*
X68775000Y-38400000D01*
X68775000Y-38400000D02*
X69550000Y-37625000D01*
X69550000Y-37625000D02*
X89800000Y-37625000D01*
X89800000Y-37625000D02*
X90750000Y-38575000D01*
X90750000Y-38575000D02*
X90750000Y-40975000D01*
%TO.N,Net-(J10-Pad1)*%
X82010000Y-41025000D02*
X82010000Y-39585000D01*
X81500000Y-39075000D02*
X72175000Y-39075000D01*
X82010000Y-39585000D02*
X81500000Y-39075000D01*
X72175000Y-39075000D02*
X70775000Y-40475000D01*
D16*
X70775000Y-40475000D02*
X70775000Y-41150000D01*
D17*
X66020000Y-51750000D02*
X63480000Y-51750000D01*
X68560000Y-51750000D02*
X66020000Y-51750000D01*
X68560000Y-46670000D02*
X68560000Y-51750000D01*
%TD*%
M02*
