%TF.GenerationSoftware,KiCad,Pcbnew,6.0.7-f9a2dced07~116~ubuntu20.04.1*%
%TF.CreationDate,2022-07-30T18:15:20+02:00*%
%TF.ProjectId,fatrug,66617472-7567-42e6-9b69-6361645f7063,rev?*%
%TF.SameCoordinates,Original*%
%TF.FileFunction,Soldermask,Bot*%
%TF.FilePolarity,Negative*%
%FSLAX46Y46*%
G04 Gerber Fmt 4.6, Leading zero omitted, Abs format (unit mm)*
G04 Created by KiCad (PCBNEW 6.0.7-f9a2dced07~116~ubuntu20.04.1) date 2022-07-30 18:15:20*
%MOMM*%
%LPD*%
G01*
G04 APERTURE LIST*
G04 Aperture macros list*
%AMRoundRect*
0 Rectangle with rounded corners*
0 $1 Rounding radius*
0 $2 $3 $4 $5 $6 $7 $8 $9 X,Y pos of 4 corners*
0 Add a 4 corners polygon primitive as box body*
4,1,4,$2,$3,$4,$5,$6,$7,$8,$9,$2,$3,0*
0 Add four circle primitives for the rounded corners*
1,1,$1+$1,$2,$3*
1,1,$1+$1,$4,$5*
1,1,$1+$1,$6,$7*
1,1,$1+$1,$8,$9*
0 Add four rect primitives between the rounded corners*
20,1,$1+$1,$2,$3,$4,$5,0*
20,1,$1+$1,$4,$5,$6,$7,0*
20,1,$1+$1,$6,$7,$8,$9,0*
20,1,$1+$1,$8,$9,$2,$3,0*%
G04 Aperture macros list end*
%ADD10R,1.700000X1.700000*%
%ADD11O,1.700000X1.700000*%
%ADD12RoundRect,0.250000X0.350000X0.625000X-0.350000X0.625000X-0.350000X-0.625000X0.350000X-0.625000X0*%
%ADD13O,1.200000X1.750000*%
%ADD14C,2.500000*%
%ADD15C,1.600000*%
%ADD16O,1.600000X1.600000*%
G04 APERTURE END LIST*
D10*
%TO.C,J14*%
X63525000Y-77705000D03*
D11*
X63525000Y-75165000D03*
X63525000Y-72625000D03*
%TD*%
D10*
%TO.C,J6*%
X91435000Y-59895000D03*
D11*
X91435000Y-62435000D03*
X91435000Y-64975000D03*
X91435000Y-67515000D03*
X91435000Y-70055000D03*
X91435000Y-72595000D03*
X91435000Y-75135000D03*
X91435000Y-77675000D03*
X91435000Y-80215000D03*
X91435000Y-82755000D03*
X91435000Y-85295000D03*
X91435000Y-87835000D03*
X91435000Y-90375000D03*
X91435000Y-92915000D03*
X91435000Y-95455000D03*
X91435000Y-97995000D03*
X91435000Y-100535000D03*
X91435000Y-103075000D03*
%TD*%
D12*
%TO.C,J3*%
X70775000Y-41150000D03*
D13*
X68775000Y-41150000D03*
%TD*%
D12*
%TO.C,J2*%
X82010000Y-41025000D03*
D13*
X80010000Y-41025000D03*
%TD*%
D12*
%TO.C,J1*%
X92750000Y-40975000D03*
D13*
X90750000Y-40975000D03*
%TD*%
D14*
%TO.C,H4*%
X61425000Y-35975000D03*
%TD*%
%TO.C,H3*%
X98500000Y-35725000D03*
%TD*%
%TO.C,H2*%
X61425000Y-105725000D03*
%TD*%
%TO.C,H1*%
X98425000Y-105725000D03*
%TD*%
D10*
%TO.C,J13*%
X82500000Y-51750000D03*
D11*
X79960000Y-51750000D03*
X77420000Y-51750000D03*
%TD*%
D10*
%TO.C,J12*%
X95000000Y-51750000D03*
D11*
X92460000Y-51750000D03*
X89920000Y-51750000D03*
%TD*%
D10*
%TO.C,J11*%
X96515000Y-59895000D03*
D11*
X96515000Y-62435000D03*
X96515000Y-64975000D03*
X96515000Y-67515000D03*
X96515000Y-70055000D03*
%TD*%
%TO.C,J10*%
X68560000Y-51750000D03*
X66020000Y-51750000D03*
D10*
X63480000Y-51750000D03*
%TD*%
%TO.C,J9*%
X63495000Y-67515000D03*
D11*
X63495000Y-64975000D03*
X63495000Y-62435000D03*
X63495000Y-59895000D03*
%TD*%
D15*
%TO.C,R2*%
X83800000Y-46670000D03*
D16*
X93960000Y-46670000D03*
%TD*%
%TO.C,R1*%
X78720000Y-46670000D03*
D15*
X68560000Y-46670000D03*
%TD*%
D10*
%TO.C,J8*%
X96515000Y-77675000D03*
D11*
X96515000Y-80215000D03*
X96515000Y-82755000D03*
X96515000Y-85295000D03*
%TD*%
%TO.C,J7*%
X96500000Y-97580000D03*
X96500000Y-95040000D03*
D10*
X96500000Y-92500000D03*
%TD*%
%TO.C,J5*%
X68575000Y-59895000D03*
D11*
X68575000Y-62435000D03*
X68575000Y-64975000D03*
X68575000Y-67515000D03*
X68575000Y-70055000D03*
X68575000Y-72595000D03*
X68575000Y-75135000D03*
X68575000Y-77675000D03*
X68575000Y-80215000D03*
X68575000Y-82755000D03*
X68575000Y-85295000D03*
X68575000Y-87835000D03*
X68575000Y-90375000D03*
X68575000Y-92915000D03*
%TD*%
D10*
%TO.C,J4*%
X63495000Y-90375000D03*
D11*
X63495000Y-87835000D03*
X63495000Y-85295000D03*
X63495000Y-82755000D03*
%TD*%
M02*
