%TF.GenerationSoftware,KiCad,Pcbnew,6.0.7-f9a2dced07~116~ubuntu20.04.1*%
%TF.CreationDate,2022-07-30T18:16:04+02:00*%
%TF.ProjectId,fatrug,66617472-7567-42e6-9b69-6361645f7063,rev?*%
%TF.SameCoordinates,Original*%
%TF.FileFunction,Drillmap*%
%TF.FilePolarity,Positive*%
%FSLAX45Y45*%
G04 Gerber Fmt 4.5, Leading zero omitted, Abs format (unit mm)*
G04 Created by KiCad (PCBNEW 6.0.7-f9a2dced07~116~ubuntu20.04.1) date 2022-07-30 18:16:04*
%MOMM*%
%LPD*%
G01*
G04 APERTURE LIST*
%ADD10C,0.100000*%
%ADD11C,0.200000*%
%ADD12C,0.250000*%
G04 APERTURE END LIST*
D10*
X5842000Y-10872500D02*
X5842000Y-3302000D01*
X10160000Y-10872500D02*
X5842000Y-10872500D01*
X10160000Y-3302000D02*
X10160000Y-10872500D01*
X5842000Y-3302000D02*
X10160000Y-3302000D01*
D11*
D12*
X6017500Y-3472500D02*
X6267500Y-3722500D01*
X6267500Y-3472500D02*
X6017500Y-3722500D01*
X6017500Y-10447500D02*
X6267500Y-10697500D01*
X6267500Y-10447500D02*
X6017500Y-10697500D01*
X9717500Y-10447500D02*
X9967500Y-10697500D01*
X9967500Y-10447500D02*
X9717500Y-10697500D01*
X9725000Y-3447500D02*
X9975000Y-3697500D01*
X9975000Y-3447500D02*
X9725000Y-3697500D01*
D11*
X6094619Y-11187976D02*
X6094619Y-10987976D01*
X6142238Y-10987976D01*
X6170809Y-10997500D01*
X6189857Y-11016548D01*
X6199381Y-11035595D01*
X6208905Y-11073690D01*
X6208905Y-11102262D01*
X6199381Y-11140357D01*
X6189857Y-11159405D01*
X6170809Y-11178452D01*
X6142238Y-11187976D01*
X6094619Y-11187976D01*
X6294619Y-11187976D02*
X6294619Y-11054643D01*
X6294619Y-11092738D02*
X6304143Y-11073690D01*
X6313667Y-11064167D01*
X6332714Y-11054643D01*
X6351762Y-11054643D01*
X6418428Y-11187976D02*
X6418428Y-11054643D01*
X6418428Y-10987976D02*
X6408905Y-10997500D01*
X6418428Y-11007024D01*
X6427952Y-10997500D01*
X6418428Y-10987976D01*
X6418428Y-11007024D01*
X6542238Y-11187976D02*
X6523190Y-11178452D01*
X6513667Y-11159405D01*
X6513667Y-10987976D01*
X6647000Y-11187976D02*
X6627952Y-11178452D01*
X6618428Y-11159405D01*
X6618428Y-10987976D01*
X6875571Y-11187976D02*
X6875571Y-10987976D01*
X6942238Y-11130833D01*
X7008905Y-10987976D01*
X7008905Y-11187976D01*
X7189857Y-11187976D02*
X7189857Y-11083214D01*
X7180333Y-11064167D01*
X7161286Y-11054643D01*
X7123190Y-11054643D01*
X7104143Y-11064167D01*
X7189857Y-11178452D02*
X7170809Y-11187976D01*
X7123190Y-11187976D01*
X7104143Y-11178452D01*
X7094619Y-11159405D01*
X7094619Y-11140357D01*
X7104143Y-11121310D01*
X7123190Y-11111786D01*
X7170809Y-11111786D01*
X7189857Y-11102262D01*
X7285095Y-11054643D02*
X7285095Y-11254643D01*
X7285095Y-11064167D02*
X7304143Y-11054643D01*
X7342238Y-11054643D01*
X7361286Y-11064167D01*
X7370809Y-11073690D01*
X7380333Y-11092738D01*
X7380333Y-11149881D01*
X7370809Y-11168929D01*
X7361286Y-11178452D01*
X7342238Y-11187976D01*
X7304143Y-11187976D01*
X7285095Y-11178452D01*
X7466048Y-11168929D02*
X7475571Y-11178452D01*
X7466048Y-11187976D01*
X7456524Y-11178452D01*
X7466048Y-11168929D01*
X7466048Y-11187976D01*
X7466048Y-11064167D02*
X7475571Y-11073690D01*
X7466048Y-11083214D01*
X7456524Y-11073690D01*
X7466048Y-11064167D01*
X7466048Y-11083214D01*
X5637000Y-11417500D02*
X5837000Y-11617500D01*
X5837000Y-11417500D02*
X5637000Y-11617500D01*
X6085095Y-11427024D02*
X6094619Y-11417500D01*
X6113667Y-11407976D01*
X6161286Y-11407976D01*
X6180333Y-11417500D01*
X6189857Y-11427024D01*
X6199381Y-11446071D01*
X6199381Y-11465119D01*
X6189857Y-11493690D01*
X6075571Y-11607976D01*
X6199381Y-11607976D01*
X6285095Y-11588928D02*
X6294619Y-11598452D01*
X6285095Y-11607976D01*
X6275571Y-11598452D01*
X6285095Y-11588928D01*
X6285095Y-11607976D01*
X6475571Y-11407976D02*
X6380333Y-11407976D01*
X6370809Y-11503214D01*
X6380333Y-11493690D01*
X6399381Y-11484167D01*
X6447000Y-11484167D01*
X6466048Y-11493690D01*
X6475571Y-11503214D01*
X6485095Y-11522262D01*
X6485095Y-11569881D01*
X6475571Y-11588928D01*
X6466048Y-11598452D01*
X6447000Y-11607976D01*
X6399381Y-11607976D01*
X6380333Y-11598452D01*
X6370809Y-11588928D01*
X6608905Y-11407976D02*
X6627952Y-11407976D01*
X6647000Y-11417500D01*
X6656524Y-11427024D01*
X6666048Y-11446071D01*
X6675571Y-11484167D01*
X6675571Y-11531786D01*
X6666048Y-11569881D01*
X6656524Y-11588928D01*
X6647000Y-11598452D01*
X6627952Y-11607976D01*
X6608905Y-11607976D01*
X6589857Y-11598452D01*
X6580333Y-11588928D01*
X6570809Y-11569881D01*
X6561286Y-11531786D01*
X6561286Y-11484167D01*
X6570809Y-11446071D01*
X6580333Y-11427024D01*
X6589857Y-11417500D01*
X6608905Y-11407976D01*
X6799381Y-11407976D02*
X6818428Y-11407976D01*
X6837476Y-11417500D01*
X6847000Y-11427024D01*
X6856524Y-11446071D01*
X6866048Y-11484167D01*
X6866048Y-11531786D01*
X6856524Y-11569881D01*
X6847000Y-11588928D01*
X6837476Y-11598452D01*
X6818428Y-11607976D01*
X6799381Y-11607976D01*
X6780333Y-11598452D01*
X6770809Y-11588928D01*
X6761286Y-11569881D01*
X6751762Y-11531786D01*
X6751762Y-11484167D01*
X6761286Y-11446071D01*
X6770809Y-11427024D01*
X6780333Y-11417500D01*
X6799381Y-11407976D01*
X6951762Y-11607976D02*
X6951762Y-11474643D01*
X6951762Y-11493690D02*
X6961286Y-11484167D01*
X6980333Y-11474643D01*
X7008905Y-11474643D01*
X7027952Y-11484167D01*
X7037476Y-11503214D01*
X7037476Y-11607976D01*
X7037476Y-11503214D02*
X7047000Y-11484167D01*
X7066048Y-11474643D01*
X7094619Y-11474643D01*
X7113667Y-11484167D01*
X7123190Y-11503214D01*
X7123190Y-11607976D01*
X7218428Y-11607976D02*
X7218428Y-11474643D01*
X7218428Y-11493690D02*
X7227952Y-11484167D01*
X7247000Y-11474643D01*
X7275571Y-11474643D01*
X7294619Y-11484167D01*
X7304143Y-11503214D01*
X7304143Y-11607976D01*
X7304143Y-11503214D02*
X7313667Y-11484167D01*
X7332714Y-11474643D01*
X7361286Y-11474643D01*
X7380333Y-11484167D01*
X7389857Y-11503214D01*
X7389857Y-11607976D01*
X7780333Y-11398452D02*
X7608905Y-11655595D01*
X8037476Y-11407976D02*
X8056524Y-11407976D01*
X8075571Y-11417500D01*
X8085095Y-11427024D01*
X8094619Y-11446071D01*
X8104143Y-11484167D01*
X8104143Y-11531786D01*
X8094619Y-11569881D01*
X8085095Y-11588928D01*
X8075571Y-11598452D01*
X8056524Y-11607976D01*
X8037476Y-11607976D01*
X8018428Y-11598452D01*
X8008905Y-11588928D01*
X7999381Y-11569881D01*
X7989857Y-11531786D01*
X7989857Y-11484167D01*
X7999381Y-11446071D01*
X8008905Y-11427024D01*
X8018428Y-11417500D01*
X8037476Y-11407976D01*
X8189857Y-11588928D02*
X8199381Y-11598452D01*
X8189857Y-11607976D01*
X8180333Y-11598452D01*
X8189857Y-11588928D01*
X8189857Y-11607976D01*
X8323190Y-11407976D02*
X8342238Y-11407976D01*
X8361286Y-11417500D01*
X8370809Y-11427024D01*
X8380333Y-11446071D01*
X8389857Y-11484167D01*
X8389857Y-11531786D01*
X8380333Y-11569881D01*
X8370809Y-11588928D01*
X8361286Y-11598452D01*
X8342238Y-11607976D01*
X8323190Y-11607976D01*
X8304143Y-11598452D01*
X8294619Y-11588928D01*
X8285095Y-11569881D01*
X8275571Y-11531786D01*
X8275571Y-11484167D01*
X8285095Y-11446071D01*
X8294619Y-11427024D01*
X8304143Y-11417500D01*
X8323190Y-11407976D01*
X8485095Y-11607976D02*
X8523190Y-11607976D01*
X8542238Y-11598452D01*
X8551762Y-11588928D01*
X8570810Y-11560357D01*
X8580333Y-11522262D01*
X8580333Y-11446071D01*
X8570810Y-11427024D01*
X8561286Y-11417500D01*
X8542238Y-11407976D01*
X8504143Y-11407976D01*
X8485095Y-11417500D01*
X8475571Y-11427024D01*
X8466048Y-11446071D01*
X8466048Y-11493690D01*
X8475571Y-11512738D01*
X8485095Y-11522262D01*
X8504143Y-11531786D01*
X8542238Y-11531786D01*
X8561286Y-11522262D01*
X8570810Y-11512738D01*
X8580333Y-11493690D01*
X8694619Y-11493690D02*
X8675571Y-11484167D01*
X8666048Y-11474643D01*
X8656524Y-11455595D01*
X8656524Y-11446071D01*
X8666048Y-11427024D01*
X8675571Y-11417500D01*
X8694619Y-11407976D01*
X8732714Y-11407976D01*
X8751762Y-11417500D01*
X8761286Y-11427024D01*
X8770810Y-11446071D01*
X8770810Y-11455595D01*
X8761286Y-11474643D01*
X8751762Y-11484167D01*
X8732714Y-11493690D01*
X8694619Y-11493690D01*
X8675571Y-11503214D01*
X8666048Y-11512738D01*
X8656524Y-11531786D01*
X8656524Y-11569881D01*
X8666048Y-11588928D01*
X8675571Y-11598452D01*
X8694619Y-11607976D01*
X8732714Y-11607976D01*
X8751762Y-11598452D01*
X8761286Y-11588928D01*
X8770810Y-11569881D01*
X8770810Y-11531786D01*
X8761286Y-11512738D01*
X8751762Y-11503214D01*
X8732714Y-11493690D01*
X8942238Y-11474643D02*
X8942238Y-11607976D01*
X8894619Y-11398452D02*
X8847000Y-11541309D01*
X8970810Y-11541309D01*
X9037476Y-11407976D02*
X9037476Y-11446071D01*
X9113667Y-11407976D02*
X9113667Y-11446071D01*
X9408905Y-11684167D02*
X9399381Y-11674643D01*
X9380333Y-11646071D01*
X9370810Y-11627024D01*
X9361286Y-11598452D01*
X9351762Y-11550833D01*
X9351762Y-11512738D01*
X9361286Y-11465119D01*
X9370810Y-11436548D01*
X9380333Y-11417500D01*
X9399381Y-11388928D01*
X9408905Y-11379405D01*
X9570810Y-11474643D02*
X9570810Y-11607976D01*
X9523190Y-11398452D02*
X9475571Y-11541309D01*
X9599381Y-11541309D01*
X9827952Y-11607976D02*
X9827952Y-11407976D01*
X9913667Y-11607976D02*
X9913667Y-11503214D01*
X9904143Y-11484167D01*
X9885095Y-11474643D01*
X9856524Y-11474643D01*
X9837476Y-11484167D01*
X9827952Y-11493690D01*
X10037476Y-11607976D02*
X10018429Y-11598452D01*
X10008905Y-11588928D01*
X9999381Y-11569881D01*
X9999381Y-11512738D01*
X10008905Y-11493690D01*
X10018429Y-11484167D01*
X10037476Y-11474643D01*
X10066048Y-11474643D01*
X10085095Y-11484167D01*
X10094619Y-11493690D01*
X10104143Y-11512738D01*
X10104143Y-11569881D01*
X10094619Y-11588928D01*
X10085095Y-11598452D01*
X10066048Y-11607976D01*
X10037476Y-11607976D01*
X10218429Y-11607976D02*
X10199381Y-11598452D01*
X10189857Y-11579405D01*
X10189857Y-11407976D01*
X10370810Y-11598452D02*
X10351762Y-11607976D01*
X10313667Y-11607976D01*
X10294619Y-11598452D01*
X10285095Y-11579405D01*
X10285095Y-11503214D01*
X10294619Y-11484167D01*
X10313667Y-11474643D01*
X10351762Y-11474643D01*
X10370810Y-11484167D01*
X10380333Y-11503214D01*
X10380333Y-11522262D01*
X10285095Y-11541309D01*
X10456524Y-11598452D02*
X10475571Y-11607976D01*
X10513667Y-11607976D01*
X10532714Y-11598452D01*
X10542238Y-11579405D01*
X10542238Y-11569881D01*
X10532714Y-11550833D01*
X10513667Y-11541309D01*
X10485095Y-11541309D01*
X10466048Y-11531786D01*
X10456524Y-11512738D01*
X10456524Y-11503214D01*
X10466048Y-11484167D01*
X10485095Y-11474643D01*
X10513667Y-11474643D01*
X10532714Y-11484167D01*
X10608905Y-11684167D02*
X10618429Y-11674643D01*
X10637476Y-11646071D01*
X10647000Y-11627024D01*
X10656524Y-11598452D01*
X10666048Y-11550833D01*
X10666048Y-11512738D01*
X10656524Y-11465119D01*
X10647000Y-11436548D01*
X10637476Y-11417500D01*
X10618429Y-11388928D01*
X10608905Y-11379405D01*
X10970810Y-11684167D02*
X10961286Y-11674643D01*
X10942238Y-11646071D01*
X10932714Y-11627024D01*
X10923190Y-11598452D01*
X10913667Y-11550833D01*
X10913667Y-11512738D01*
X10923190Y-11465119D01*
X10932714Y-11436548D01*
X10942238Y-11417500D01*
X10961286Y-11388928D01*
X10970810Y-11379405D01*
X11047000Y-11474643D02*
X11047000Y-11607976D01*
X11047000Y-11493690D02*
X11056524Y-11484167D01*
X11075571Y-11474643D01*
X11104143Y-11474643D01*
X11123190Y-11484167D01*
X11132714Y-11503214D01*
X11132714Y-11607976D01*
X11256524Y-11607976D02*
X11237476Y-11598452D01*
X11227952Y-11588928D01*
X11218428Y-11569881D01*
X11218428Y-11512738D01*
X11227952Y-11493690D01*
X11237476Y-11484167D01*
X11256524Y-11474643D01*
X11285095Y-11474643D01*
X11304143Y-11484167D01*
X11313667Y-11493690D01*
X11323190Y-11512738D01*
X11323190Y-11569881D01*
X11313667Y-11588928D01*
X11304143Y-11598452D01*
X11285095Y-11607976D01*
X11256524Y-11607976D01*
X11380333Y-11474643D02*
X11456524Y-11474643D01*
X11408905Y-11407976D02*
X11408905Y-11579405D01*
X11418428Y-11598452D01*
X11437476Y-11607976D01*
X11456524Y-11607976D01*
X11675571Y-11474643D02*
X11675571Y-11674643D01*
X11675571Y-11484167D02*
X11694619Y-11474643D01*
X11732714Y-11474643D01*
X11751762Y-11484167D01*
X11761286Y-11493690D01*
X11770809Y-11512738D01*
X11770809Y-11569881D01*
X11761286Y-11588928D01*
X11751762Y-11598452D01*
X11732714Y-11607976D01*
X11694619Y-11607976D01*
X11675571Y-11598452D01*
X11885095Y-11607976D02*
X11866048Y-11598452D01*
X11856524Y-11579405D01*
X11856524Y-11407976D01*
X12047000Y-11607976D02*
X12047000Y-11503214D01*
X12037476Y-11484167D01*
X12018428Y-11474643D01*
X11980333Y-11474643D01*
X11961286Y-11484167D01*
X12047000Y-11598452D02*
X12027952Y-11607976D01*
X11980333Y-11607976D01*
X11961286Y-11598452D01*
X11951762Y-11579405D01*
X11951762Y-11560357D01*
X11961286Y-11541309D01*
X11980333Y-11531786D01*
X12027952Y-11531786D01*
X12047000Y-11522262D01*
X12113667Y-11474643D02*
X12189857Y-11474643D01*
X12142238Y-11407976D02*
X12142238Y-11579405D01*
X12151762Y-11598452D01*
X12170809Y-11607976D01*
X12189857Y-11607976D01*
X12332714Y-11598452D02*
X12313667Y-11607976D01*
X12275571Y-11607976D01*
X12256524Y-11598452D01*
X12247000Y-11579405D01*
X12247000Y-11503214D01*
X12256524Y-11484167D01*
X12275571Y-11474643D01*
X12313667Y-11474643D01*
X12332714Y-11484167D01*
X12342238Y-11503214D01*
X12342238Y-11522262D01*
X12247000Y-11541309D01*
X12513667Y-11607976D02*
X12513667Y-11407976D01*
X12513667Y-11598452D02*
X12494619Y-11607976D01*
X12456524Y-11607976D01*
X12437476Y-11598452D01*
X12427952Y-11588928D01*
X12418428Y-11569881D01*
X12418428Y-11512738D01*
X12427952Y-11493690D01*
X12437476Y-11484167D01*
X12456524Y-11474643D01*
X12494619Y-11474643D01*
X12513667Y-11484167D01*
X12589857Y-11684167D02*
X12599381Y-11674643D01*
X12618428Y-11646071D01*
X12627952Y-11627024D01*
X12637476Y-11598452D01*
X12647000Y-11550833D01*
X12647000Y-11512738D01*
X12637476Y-11465119D01*
X12627952Y-11436548D01*
X12618428Y-11417500D01*
X12599381Y-11388928D01*
X12589857Y-11379405D01*
M02*
