M48
; DRILL file {KiCad 6.0.7-f9a2dced07~116~ubuntu20.04.1} date So 30. července 2022, 18:16:16
; FORMAT={-:-/ absolute / inch / decimal}
; #@! TF.CreationDate,2022-07-30T18:16:16+02:00
; #@! TF.GenerationSoftware,Kicad,Pcbnew,6.0.7-f9a2dced07~116~ubuntu20.04.1
; #@! TF.FileFunction,Plated,1,2,PTH
FMAT,2
INCH
; #@! TA.AperFunction,Plated,PTH,ComponentDrill
T1C0.0295
; #@! TA.AperFunction,Plated,PTH,ComponentDrill
T2C0.0315
; #@! TA.AperFunction,Plated,PTH,ComponentDrill
T3C0.0394
%
G90
G05
T1
X2.7077Y-1.6201
X2.7864Y-1.6201
X3.15Y-1.6152
X3.2287Y-1.6152
X3.5728Y-1.6132
X3.6516Y-1.6132
T2
X2.6992Y-1.8374
X3.0992Y-1.8374
X3.2992Y-1.8374
X3.6992Y-1.8374
T3
X2.4992Y-2.0374
X2.4998Y-2.3581
X2.4998Y-2.4581
X2.4998Y-2.5581
X2.4998Y-2.6581
X2.4998Y-3.2581
X2.4998Y-3.3581
X2.4998Y-3.4581
X2.4998Y-3.5581
X2.501Y-2.8593
X2.501Y-2.9593
X2.501Y-3.0593
X2.5992Y-2.0374
X2.6992Y-2.0374
X2.6998Y-2.3581
X2.6998Y-2.4581
X2.6998Y-2.5581
X2.6998Y-2.6581
X2.6998Y-2.7581
X2.6998Y-2.8581
X2.6998Y-2.9581
X2.6998Y-3.0581
X2.6998Y-3.1581
X2.6998Y-3.2581
X2.6998Y-3.3581
X2.6998Y-3.4581
X2.6998Y-3.5581
X2.6998Y-3.6581
X3.048Y-2.0374
X3.148Y-2.0374
X3.248Y-2.0374
X3.5402Y-2.0374
X3.5998Y-2.3581
X3.5998Y-2.4581
X3.5998Y-2.5581
X3.5998Y-2.6581
X3.5998Y-2.7581
X3.5998Y-2.8581
X3.5998Y-2.9581
X3.5998Y-3.0581
X3.5998Y-3.1581
X3.5998Y-3.2581
X3.5998Y-3.3581
X3.5998Y-3.4581
X3.5998Y-3.5581
X3.5998Y-3.6581
X3.5998Y-3.7581
X3.5998Y-3.8581
X3.5998Y-3.9581
X3.5998Y-4.0581
X3.6402Y-2.0374
X3.7402Y-2.0374
X3.7992Y-3.6417
X3.7992Y-3.7417
X3.7992Y-3.8417
X3.7998Y-2.3581
X3.7998Y-2.4581
X3.7998Y-2.5581
X3.7998Y-2.6581
X3.7998Y-2.7581
X3.7998Y-3.0581
X3.7998Y-3.1581
X3.7998Y-3.2581
X3.7998Y-3.3581
T0
M30
